<?xml version="1.0" encoding="UTF-8" standalone="no"?>
<svg
   xmlns:dc="http://purl.org/dc/elements/1.1/"
   xmlns:cc="http://creativecommons.org/ns#"
   xmlns:rdf="http://www.w3.org/1999/02/22-rdf-syntax-ns#"
   xmlns:svg="http://www.w3.org/2000/svg"
   xmlns="http://www.w3.org/2000/svg"
   xmlns:sodipodi="http://sodipodi.sourceforge.net/DTD/sodipodi-0.dtd"
   xmlns:inkscape="http://www.inkscape.org/namespaces/inkscape"
   height="682pt"
   viewBox="-21 -47 682.66669 682"
   width="682pt"
   version="1.1"
   id="svg5136"
   sodipodi:docname="comment-white.svg"
   inkscape:version="0.92.4 (5da689c313, 2019-01-14)">
  <metadata
     id="metadata5142">
    <rdf:RDF>
      <cc:Work
         rdf:about="">
        <dc:format>image/svg+xml</dc:format>
        <dc:type
           rdf:resource="http://purl.org/dc/dcmitype/StillImage" />
      </cc:Work>
    </rdf:RDF>
  </metadata>
  <defs
     id="defs5140" />
  <sodipodi:namedview
     pagecolor="#ffffff"
     bordercolor="#666666"
     borderopacity="1"
     objecttolerance="10"
     gridtolerance="10"
     guidetolerance="10"
     inkscape:pageopacity="0"
     inkscape:pageshadow="2"
     inkscape:window-width="1366"
     inkscape:window-height="705"
     id="namedview5138"
     showgrid="false"
     inkscape:zoom="0.25953079"
     inkscape:cx="454.66667"
     inkscape:cy="454.66667"
     inkscape:window-x="-8"
     inkscape:window-y="-8"
     inkscape:window-maximized="1"
     inkscape:current-layer="svg5136" />
  <path
     d="M 552.01172,-1.332031 H 87.988281 C 39.472656,-1.332031 0,38.132812 0,86.65625 v 283.97266 c 0,48.41406 39.300781,87.8164 87.675781,87.98828 V 587.48047 L 272.86719,458.61719 H 552.01172 C 600.52734,458.61719 640,419.14453 640,370.62891 V 86.65625 C 640,38.132812 600.52734,-1.332031 552.01172,-1.332031 Z M 602.5,370.62891 c 0,27.83593 -22.64844,50.48828 -50.48828,50.48828 H 261.10156 L 125.17578,515.70312 V 421.11719 H 87.988281 C 60.148438,421.11719 37.5,398.46484 37.5,370.62891 V 86.65625 C 37.5,58.8125 60.148438,36.167969 87.988281,36.167969 H 552.01172 c 27.83984,0 50.48828,22.644531 50.48828,50.488281 z m 0,0"
     id="path5128"
     style="fill:#ffffff"
     inkscape:connector-curvature="0" />
  <path
     d="m 171.29297,131.17187 h 297.41406 v 37.5 H 171.29297 Z m 0,0"
     id="path5130"
     style="fill:#ffffff"
     inkscape:connector-curvature="0" />
  <path
     d="m 171.29297,211.17187 h 297.41406 v 37.5 H 171.29297 Z m 0,0"
     id="path5132"
     style="fill:#ffffff"
     inkscape:connector-curvature="0" />
  <path
     d="m 171.29297,291.17187 h 297.41406 v 37.5 H 171.29297 Z m 0,0"
     id="path5134"
     style="fill:#ffffff"
     inkscape:connector-curvature="0" />
</svg>
