<?xml version="1.0" encoding="UTF-8" standalone="no"?>
<!-- Created with Inkscape (http://www.inkscape.org/) -->

<svg
   width="58.675194mm"
   height="45.33503mm"
   viewBox="0 0 58.675194 45.33503"
   version="1.1"
   id="svg8"
   inkscape:version="1.1 (c68e22c387, 2021-05-23)"
   sodipodi:docname="cover-authors-title-centered.svg"
   xmlns:inkscape="http://www.inkscape.org/namespaces/inkscape"
   xmlns:sodipodi="http://sodipodi.sourceforge.net/DTD/sodipodi-0.dtd"
   xmlns="http://www.w3.org/2000/svg"
   xmlns:svg="http://www.w3.org/2000/svg"
   xmlns:rdf="http://www.w3.org/1999/02/22-rdf-syntax-ns#"
   xmlns:cc="http://creativecommons.org/ns#"
   xmlns:dc="http://purl.org/dc/elements/1.1/">
  <defs
     id="defs2" />
  <sodipodi:namedview
     id="base"
     pagecolor="#ffffff"
     bordercolor="#666666"
     borderopacity="1.0"
     inkscape:pageopacity="0.0"
     inkscape:pageshadow="2"
     inkscape:zoom="1.979899"
     inkscape:cx="44.69925"
     inkscape:cy="105.81348"
     inkscape:document-units="mm"
     inkscape:current-layer="layer1"
     showgrid="false"
     inkscape:window-width="1366"
     inkscape:window-height="705"
     inkscape:window-x="-8"
     inkscape:window-y="-8"
     inkscape:window-maximized="1"
     fit-margin-top="1"
     fit-margin-left="0"
     fit-margin-right="1"
     fit-margin-bottom="0"
     inkscape:pagecheckerboard="1" />
  <metadata
     id="metadata5">
    <rdf:RDF>
      <cc:Work
         rdf:about="">
        <dc:format>image/svg+xml</dc:format>
        <dc:type
           rdf:resource="http://purl.org/dc/dcmitype/StillImage" />
        <dc:title />
      </cc:Work>
    </rdf:RDF>
  </metadata>
  <g
     inkscape:label="Calque 1"
     inkscape:groupmode="layer"
     id="layer1"
     transform="translate(-6.4816094,-32.232907)">
    <g
       aria-label="RENCONTRES
D'AUTEUR
+ EXTRAITS"
       id="text851"
       style="font-size:10.5833px;line-height:1.25;letter-spacing:0px;word-spacing:0px;stroke-width:0.264583">
      <path
         d="m 8.6795256,33.374027 h 2.3001094 q 1.199443,0 1.749776,0.564444 0.550333,0.550333 0.550333,1.707443 v 0.606777 q 0,1.53811 -1.015999,1.947332 v 0.02822 q 0.564444,0.169333 0.790222,0.691444 0.239888,0.522111 0.239888,1.396999 v 1.735665 q 0,0.423333 0.02822,0.691444 0.02822,0.254 0.141111,0.508 h -1.580444 q -0.08467,-0.239889 -0.112888,-0.451555 -0.02822,-0.211667 -0.02822,-0.762 v -1.806221 q 0,-0.677333 -0.225777,-0.945443 -0.211667,-0.268111 -0.747889,-0.268111 h -0.536221 v 4.23333 H 8.6795256 Z m 2.1166654,4.23333 q 0.465666,0 0.691444,-0.239889 0.239888,-0.239889 0.239888,-0.804333 v -0.761999 q 0,-0.536222 -0.197555,-0.776111 -0.183444,-0.239888 -0.592666,-0.239888 h -0.705555 v 2.82222 z"
         style="font-size:14.1111px;font-family:'Bebas Neue';-inkscape-font-specification:'Bebas Neue';stroke:none;fill:#ffde59;fill-opacity:1"
         id="path5608" />
      <path
         d="m 14.366297,33.374027 h 4.233331 v 1.41111 h -2.681109 v 2.610553 h 2.130776 v 1.41111 h -2.130776 v 3.033887 h 2.681109 v 1.41111 h -4.233331 z"
         style="font-size:14.1111px;font-family:'Bebas Neue';-inkscape-font-specification:'Bebas Neue';stroke:none;fill:#ffde59;fill-opacity:1"
         id="path5610" />
      <path
         d="m 19.488612,33.374027 h 1.947332 l 1.509888,5.912551 h 0.02822 v -5.912551 h 1.382888 v 9.87777 H 22.762388 L 20.899722,36.041025 H 20.8715 v 7.210772 h -1.382888 z"
         style="font-size:14.1111px;font-family:'Bebas Neue';-inkscape-font-specification:'Bebas Neue';stroke:none;fill:#ffde59;fill-opacity:1"
         id="path5612" />
      <path
         d="m 27.701246,43.392908 q -1.114777,0 -1.707444,-0.635 -0.578555,-0.634999 -0.578555,-1.79211 v -5.305773 q 0,-1.15711 0.578555,-1.79211 0.592667,-0.634999 1.707444,-0.634999 1.114776,0 1.693332,0.634999 0.592666,0.635 0.592666,1.79211 v 1.044221 h -1.467555 v -1.142999 q 0,-0.917221 -0.77611,-0.917221 -0.776111,0 -0.776111,0.917221 v 5.51744 q 0,0.903111 0.776111,0.903111 0.77611,0 0.77611,-0.903111 V 39.5688 h 1.467555 v 1.396998 q 0,1.157111 -0.592666,1.79211 -0.578556,0.635 -1.693332,0.635 z"
         style="font-size:14.1111px;font-family:'Bebas Neue';-inkscape-font-specification:'Bebas Neue';stroke:none;fill:#ffde59;fill-opacity:1"
         id="path5614" />
      <path
         d="m 33.190441,43.392908 q -1.143,0 -1.749777,-0.649111 -0.606777,-0.64911 -0.606777,-1.834443 v -5.192885 q 0,-1.185332 0.606777,-1.834443 0.606777,-0.64911 1.749777,-0.64911 1.142999,0 1.749776,0.64911 0.606777,0.649111 0.606777,1.834443 v 5.192885 q 0,1.185333 -0.606777,1.834443 -0.606777,0.649111 -1.749776,0.649111 z m 0,-1.41111 q 0.804332,0 0.804332,-0.973666 v -5.39044 q 0,-0.973666 -0.804332,-0.973666 -0.804333,0 -0.804333,0.973666 v 5.39044 q 0,0.973666 0.804333,0.973666 z"
         style="font-size:14.1111px;font-family:'Bebas Neue';-inkscape-font-specification:'Bebas Neue';stroke:none;fill:#ffde59;fill-opacity:1"
         id="path5616" />
      <path
         d="m 36.591212,33.374027 h 1.947331 l 1.509888,5.912551 h 0.02822 v -5.912551 h 1.382888 v 9.87777 h -1.594554 l -1.862665,-7.210772 h -0.02822 v 7.210772 h -1.382887 z"
         style="font-size:14.1111px;font-family:'Bebas Neue';-inkscape-font-specification:'Bebas Neue';stroke:none;fill:#ffde59;fill-opacity:1"
         id="path5618" />
      <path
         d="m 43.83018,34.785137 h -1.622777 v -1.41111 h 4.797774 v 1.41111 h -1.622776 v 8.46666 H 43.83018 Z"
         style="font-size:14.1111px;font-family:'Bebas Neue';-inkscape-font-specification:'Bebas Neue';stroke:none;fill:#ffde59;fill-opacity:1"
         id="path5620" />
      <path
         d="m 47.753042,33.374027 h 2.30011 q 1.199443,0 1.749776,0.564444 0.550333,0.550333 0.550333,1.707443 v 0.606777 q 0,1.53811 -1.015999,1.947332 v 0.02822 q 0.564444,0.169333 0.790222,0.691444 0.239888,0.522111 0.239888,1.396999 v 1.735665 q 0,0.423333 0.02822,0.691444 0.02822,0.254 0.141111,0.508 h -1.580443 q -0.08467,-0.239889 -0.112889,-0.451555 -0.02822,-0.211667 -0.02822,-0.762 v -1.806221 q 0,-0.677333 -0.225777,-0.945443 -0.211667,-0.268111 -0.747889,-0.268111 h -0.536222 v 4.23333 h -1.552221 z m 2.116665,4.23333 q 0.465667,0 0.691444,-0.239889 0.239889,-0.239889 0.239889,-0.804333 v -0.761999 q 0,-0.536222 -0.197555,-0.776111 -0.183445,-0.239888 -0.592667,-0.239888 h -0.705555 v 2.82222 z"
         style="font-size:14.1111px;font-family:'Bebas Neue';-inkscape-font-specification:'Bebas Neue';stroke:none;fill:#ffde59;fill-opacity:1"
         id="path5622" />
      <path
         d="m 53.439814,33.374027 h 4.23333 v 1.41111 h -2.681109 v 2.610553 h 2.130776 v 1.41111 h -2.130776 v 3.033887 h 2.681109 v 1.41111 h -4.23333 z"
         style="font-size:14.1111px;font-family:'Bebas Neue';-inkscape-font-specification:'Bebas Neue';stroke:none;fill:#ffde59;fill-opacity:1"
         id="path5624" />
      <path
         d="m 60.608222,43.392908 q -1.128889,0 -1.707444,-0.635 -0.578555,-0.64911 -0.578555,-1.848554 V 40.34491 h 1.467555 v 0.677333 q 0,0.959555 0.804332,0.959555 0.395111,0 0.592667,-0.225778 0.211666,-0.239889 0.211666,-0.761999 0,-0.620889 -0.282222,-1.086555 -0.282222,-0.479777 -1.044221,-1.142999 -0.959555,-0.846666 -1.340555,-1.523999 -0.381,-0.691444 -0.381,-1.552221 0,-1.171221 0.592667,-1.806221 0.592666,-0.64911 1.721554,-0.64911 1.114777,0 1.679221,0.64911 0.578555,0.635 0.578555,1.834443 v 0.409222 h -1.467554 v -0.507999 q 0,-0.508 -0.197556,-0.733778 -0.197555,-0.239888 -0.578555,-0.239888 -0.77611,0 -0.77611,0.945443 0,0.536222 0.282222,1.001888 0.296333,0.465667 1.058332,1.128888 0.973666,0.846666 1.340555,1.53811 0.366888,0.691444 0.366888,1.622777 0,1.213555 -0.606777,1.862665 -0.592666,0.649111 -1.735665,0.649111 z"
         style="font-size:14.1111px;font-family:'Bebas Neue';-inkscape-font-specification:'Bebas Neue';stroke:none;fill:#ffde59;fill-opacity:1"
         id="path5626" />
      <path
         d="m 16.024356,46.012916 h 2.370665 q 1.15711,0 1.735665,0.620888 0.578555,0.620889 0.578555,1.820332 v 4.99533 q 0,1.199443 -0.578555,1.820332 -0.578555,0.620888 -1.735665,0.620888 h -2.370665 z m 2.342442,8.46666 q 0.381,0 0.578556,-0.225778 0.211666,-0.225777 0.211666,-0.733777 v -5.13644 q 0,-0.508 -0.211666,-0.733777 -0.197556,-0.225778 -0.578556,-0.225778 h -0.790221 v 7.05555 z"
         style="font-size:14.1111px;font-family:'Bebas Neue';-inkscape-font-specification:'Bebas Neue';stroke:none;fill:#ffde59;fill-opacity:1"
         id="path5628" />
      <path
         d="m 21.62643,46.012916 h 1.580444 l -0.381,3.189109 h -0.832555 z"
         style="font-size:14.1111px;font-family:'Bebas Neue';-inkscape-font-specification:'Bebas Neue';stroke:none;fill:#ffde59;fill-opacity:1"
         id="path5630" />
      <path
         d="m 24.773182,46.012916 h 2.102554 l 1.608665,9.87777 H 26.93218 l -0.282222,-1.961443 v 0.02822 h -1.763887 l -0.282222,1.933221 h -1.439332 z m 1.693332,6.603995 -0.691444,-4.882441 h -0.02822 l -0.677333,4.882441 z"
         style="font-size:14.1111px;font-family:'Bebas Neue';-inkscape-font-specification:'Bebas Neue';stroke:none;fill:#ffde59;fill-opacity:1"
         id="path5632" />
      <path
         d="m 31.461818,56.031797 q -1.128888,0 -1.721554,-0.634999 -0.592666,-0.649111 -0.592666,-1.848555 v -7.535327 h 1.552221 v 7.648216 q 0,0.508 0.197555,0.733777 0.211667,0.225778 0.592667,0.225778 0.380999,0 0.578555,-0.225778 0.211666,-0.225777 0.211666,-0.733777 v -7.648216 h 1.495777 v 7.535327 q 0,1.199444 -0.592666,1.848555 -0.592667,0.634999 -1.721555,0.634999 z"
         style="font-size:14.1111px;font-family:'Bebas Neue';-inkscape-font-specification:'Bebas Neue';stroke:none;fill:#ffde59;fill-opacity:1"
         id="path5634" />
      <path
         d="m 36.090238,47.424026 h -1.622777 v -1.41111 h 4.797774 v 1.41111 h -1.622776 v 8.46666 h -1.552221 z"
         style="font-size:14.1111px;font-family:'Bebas Neue';-inkscape-font-specification:'Bebas Neue';stroke:none;fill:#ffde59;fill-opacity:1"
         id="path5636" />
      <path
         d="m 40.013103,46.012916 h 4.23333 v 1.41111 h -2.681109 v 2.610553 H 43.6961 v 1.41111 h -2.130776 v 3.033887 h 2.681109 v 1.41111 h -4.23333 z"
         style="font-size:14.1111px;font-family:'Bebas Neue';-inkscape-font-specification:'Bebas Neue';stroke:none;fill:#ffde59;fill-opacity:1"
         id="path5638" />
      <path
         d="m 47.393193,56.031797 q -1.128888,0 -1.721554,-0.634999 -0.592666,-0.649111 -0.592666,-1.848555 v -7.535327 h 1.552221 v 7.648216 q 0,0.508 0.197555,0.733777 0.211666,0.225778 0.592666,0.225778 0.381,0 0.578555,-0.225778 0.211667,-0.225777 0.211667,-0.733777 v -7.648216 h 1.495776 v 7.535327 q 0,1.199444 -0.592666,1.848555 -0.592666,0.634999 -1.721554,0.634999 z"
         style="font-size:14.1111px;font-family:'Bebas Neue';-inkscape-font-specification:'Bebas Neue';stroke:none;fill:#ffde59;fill-opacity:1"
         id="path5640" />
      <path
         d="m 50.808059,46.012916 h 2.300109 q 1.199444,0 1.749776,0.564444 0.550333,0.550333 0.550333,1.707443 v 0.606777 q 0,1.53811 -1.015999,1.947332 v 0.02822 q 0.564444,0.169334 0.790222,0.691444 0.239888,0.522111 0.239888,1.396999 v 1.735666 q 0,0.423333 0.02822,0.691443 0.02822,0.254 0.141111,0.508 h -1.580444 q -0.08467,-0.239889 -0.112888,-0.451555 -0.02822,-0.211667 -0.02822,-0.762 v -1.80622 q 0,-0.677333 -0.225777,-0.945444 -0.211667,-0.268111 -0.747888,-0.268111 H 52.36028 v 4.23333 h -1.552221 z m 2.116665,4.23333 q 0.465666,0 0.691444,-0.239889 0.239888,-0.239888 0.239888,-0.804332 v -0.762 q 0,-0.536222 -0.197555,-0.77611 -0.183444,-0.239889 -0.592666,-0.239889 H 52.36028 v 2.82222 z"
         style="font-size:14.1111px;font-family:'Bebas Neue';-inkscape-font-specification:'Bebas Neue';stroke:none;fill:#ffde59;fill-opacity:1"
         id="path5642" />
      <path
         d="m 19.250515,64.546439 h -1.418162 v -0.825498 h 1.418162 v -1.428745 h 0.825498 v 1.428745 h 1.418162 v 0.825498 h -1.418162 v 1.449912 h -0.825498 z"
         style="font-size:10.5833px;font-family:'Bebas Neue';-inkscape-font-specification:'Bebas Neue';stroke:none;fill:#ffffff;fill-opacity:1"
         id="path5644" />
      <path
         d="m 23.907162,60.429535 h 3.17499 v 1.05833 h -2.010827 v 1.95791 h 1.598078 v 1.05833 h -1.598078 v 2.27541 h 2.010827 v 1.05833 h -3.17499 z"
         style="font-size:10.5833px;font-family:'Bebas Neue';-inkscape-font-specification:'Bebas Neue';stroke:none;fill:#ffffff;fill-opacity:1"
         id="path5646" />
      <path
         d="m 28.796624,64.049024 -1.28058,-3.619489 h 1.227663 l 0.783164,2.391826 h 0.02117 l 0.804331,-2.391826 h 1.100663 l -1.280579,3.619489 1.344079,3.788821 H 30.288869 L 29.442205,65.25552 h -0.02117 l -0.86783,2.582325 h -1.100663 z"
         style="font-size:10.5833px;font-family:'Bebas Neue';-inkscape-font-specification:'Bebas Neue';stroke:none;fill:#ffffff;fill-opacity:1"
         id="path5648" />
      <path
         d="m 32.977008,61.487865 h -1.21708 v -1.05833 h 3.598322 v 1.05833 h -1.217079 v 6.34998 h -1.164163 z"
         style="font-size:10.5833px;font-family:'Bebas Neue';-inkscape-font-specification:'Bebas Neue';stroke:none;fill:#ffffff;fill-opacity:1"
         id="path5650" />
      <path
         d="m 35.919149,60.429535 h 1.725077 q 0.899581,0 1.31233,0.423332 0.412748,0.412749 0.412748,1.280579 v 0.455082 q 0,1.15358 -0.761997,1.460496 v 0.02117 q 0.423332,0.127 0.592665,0.518582 0.179916,0.391582 0.179916,1.047747 v 1.301745 q 0,0.317499 0.02117,0.518582 0.02117,0.190499 0.105833,0.380999 h -1.185329 q -0.0635,-0.179916 -0.08467,-0.338666 -0.02117,-0.158749 -0.02117,-0.571498 v -1.354662 q 0,-0.507999 -0.169333,-0.709081 -0.15875,-0.201083 -0.560915,-0.201083 h -0.402165 v 3.17499 h -1.164163 z m 1.587495,3.17499 q 0.349248,0 0.518581,-0.179916 0.179916,-0.179916 0.179916,-0.603248 v -0.571498 q 0,-0.402166 -0.148166,-0.582082 -0.137583,-0.179916 -0.444498,-0.179916 h -0.529165 v 2.11666 z"
         style="font-size:10.5833px;font-family:'Bebas Neue';-inkscape-font-specification:'Bebas Neue';stroke:none;fill:#ffffff;fill-opacity:1"
         id="path5652" />
      <path
         d="m 41.083797,60.429535 h 1.576912 l 1.206496,7.40831 h -1.164163 l -0.211666,-1.471079 v 0.02117 h -1.322912 l -0.211666,1.449912 h -1.079497 z m 1.269996,4.952984 -0.518582,-3.661821 h -0.02117 l -0.507999,3.661821 z"
         style="font-size:10.5833px;font-family:'Bebas Neue';-inkscape-font-specification:'Bebas Neue';stroke:none;fill:#ffffff;fill-opacity:1"
         id="path5654" />
      <path
         d="m 44.428111,60.429535 h 1.164163 v 7.40831 h -1.164163 z"
         style="font-size:10.5833px;font-family:'Bebas Neue';-inkscape-font-specification:'Bebas Neue';stroke:none;fill:#ffffff;fill-opacity:1"
         id="path5656" />
      <path
         d="m 47.370261,61.487865 h -1.217079 v -1.05833 h 3.598322 v 1.05833 h -1.21708 v 6.34998 h -1.164163 z"
         style="font-size:10.5833px;font-family:'Bebas Neue';-inkscape-font-specification:'Bebas Neue';stroke:none;fill:#ffffff;fill-opacity:1"
         id="path5658" />
      <path
         d="m 51.825814,67.943678 q -0.846664,0 -1.280579,-0.476249 -0.433916,-0.486831 -0.433916,-1.386412 v -0.423332 h 1.100663 v 0.507999 q 0,0.719664 0.603249,0.719664 0.296332,0 0.444498,-0.169333 0.15875,-0.179916 0.15875,-0.571498 0,-0.465665 -0.211666,-0.814914 -0.211666,-0.359832 -0.783165,-0.857247 -0.719664,-0.634998 -1.005413,-1.142997 -0.285749,-0.518581 -0.285749,-1.164163 0,-0.878414 0.444498,-1.354662 0.444499,-0.486832 1.291163,-0.486832 0.836081,0 1.259413,0.486832 0.433915,0.476248 0.433915,1.375829 v 0.306916 H 52.460812 V 62.11228 q 0,-0.380999 -0.148166,-0.550332 -0.148167,-0.179916 -0.433916,-0.179916 -0.582081,0 -0.582081,0.709081 0,0.402166 0.211666,0.751414 0.222249,0.349249 0.793747,0.846664 0.730248,0.634998 1.005414,1.15358 0.275166,0.518582 0.275166,1.21708 0,0.910163 -0.455082,1.396995 -0.444499,0.486832 -1.301746,0.486832 z"
         style="font-size:10.5833px;font-family:'Bebas Neue';-inkscape-font-specification:'Bebas Neue';stroke:none;fill:#ffffff;fill-opacity:1"
         id="path5660" />
    </g>
  </g>
</svg>
