<?xml version="1.0" encoding="UTF-8" standalone="no"?>
<!-- Created with Inkscape (http://www.inkscape.org/) -->

<svg
   width="58.675194mm"
   height="45.33503mm"
   viewBox="0 0 58.675194 45.33503"
   version="1.1"
   id="svg8"
   inkscape:version="1.1 (c68e22c387, 2021-05-23)"
   sodipodi:docname="cover-interviews-title.svg"
   xmlns:inkscape="http://www.inkscape.org/namespaces/inkscape"
   xmlns:sodipodi="http://sodipodi.sourceforge.net/DTD/sodipodi-0.dtd"
   xmlns="http://www.w3.org/2000/svg"
   xmlns:svg="http://www.w3.org/2000/svg"
   xmlns:rdf="http://www.w3.org/1999/02/22-rdf-syntax-ns#"
   xmlns:cc="http://creativecommons.org/ns#"
   xmlns:dc="http://purl.org/dc/elements/1.1/">
  <defs
     id="defs2" />
  <sodipodi:namedview
     id="base"
     pagecolor="#ffffff"
     bordercolor="#666666"
     borderopacity="1.0"
     inkscape:pageopacity="0.0"
     inkscape:pageshadow="2"
     inkscape:zoom="1.979899"
     inkscape:cx="94.196725"
     inkscape:cy="90.661191"
     inkscape:document-units="mm"
     inkscape:current-layer="layer1"
     showgrid="false"
     inkscape:window-width="1366"
     inkscape:window-height="705"
     inkscape:window-x="-8"
     inkscape:window-y="-8"
     inkscape:window-maximized="1"
     fit-margin-top="1"
     fit-margin-left="0"
     fit-margin-right="1"
     fit-margin-bottom="0"
     inkscape:pagecheckerboard="1" />
  <metadata
     id="metadata5">
    <rdf:RDF>
      <cc:Work
         rdf:about="">
        <dc:format>image/svg+xml</dc:format>
        <dc:type
           rdf:resource="http://purl.org/dc/dcmitype/StillImage" />
        <dc:title />
      </cc:Work>
    </rdf:RDF>
  </metadata>
  <g
     inkscape:label="Calque 1"
     inkscape:groupmode="layer"
     id="layer1"
     transform="translate(-6.4816094,-32.232907)">
    <g
       aria-label="INTERVIEWS
DE CHANTEUR
DÉCOUVREZ LEURS
INSPIRATIONS"
       id="text851"
       style="font-size:10.5833px;line-height:1.25;letter-spacing:0px;word-spacing:0px;stroke-width:0.264583">
      <path
         d="m 6.6262479,33.374027 h 1.552221 v 9.87777 h -1.552221 z"
         style="font-size:14.1111px;font-family:'Bebas Neue';-inkscape-font-specification:'Bebas Neue';stroke:none;fill:#ffde59;fill-opacity:1"
         id="path7338" />
      <path
         d="m 9.3355711,33.374027 h 1.9473319 l 1.509888,5.912551 h 0.02822 v -5.912551 h 1.382888 v 9.87777 h -1.594555 l -1.862665,-7.210772 h -0.02822 v 7.210772 H 9.3355711 Z"
         style="font-size:14.1111px;font-family:'Bebas Neue';-inkscape-font-specification:'Bebas Neue';stroke:none;fill:#ffde59;fill-opacity:1"
         id="path7340" />
      <path
         d="m 16.574539,34.785137 h -1.622777 v -1.41111 h 4.797774 v 1.41111 H 18.12676 v 8.46666 h -1.552221 z"
         style="font-size:14.1111px;font-family:'Bebas Neue';-inkscape-font-specification:'Bebas Neue';stroke:none;fill:#ffde59;fill-opacity:1"
         id="path7342" />
      <path
         d="m 20.497403,33.374027 h 4.23333 v 1.41111 H 22.049624 V 37.39569 H 24.1804 v 1.41111 h -2.130776 v 3.033887 h 2.681109 v 1.41111 h -4.23333 z"
         style="font-size:14.1111px;font-family:'Bebas Neue';-inkscape-font-specification:'Bebas Neue';stroke:none;fill:#ffde59;fill-opacity:1"
         id="path7344" />
      <path
         d="m 25.619717,33.374027 h 2.300109 q 1.199444,0 1.749777,0.564444 0.550333,0.550333 0.550333,1.707443 v 0.606777 q 0,1.53811 -1.015999,1.947332 v 0.02822 q 0.564444,0.169333 0.790221,0.691444 0.239889,0.522111 0.239889,1.396999 v 1.735665 q 0,0.423333 0.02822,0.691444 0.02822,0.254 0.141111,0.508 h -1.580443 q -0.08467,-0.239889 -0.112889,-0.451555 -0.02822,-0.211667 -0.02822,-0.762 v -1.806221 q 0,-0.677333 -0.225778,-0.945443 -0.211666,-0.268111 -0.747888,-0.268111 h -0.536222 v 4.23333 h -1.552221 z m 2.116665,4.23333 q 0.465666,0 0.691444,-0.239889 0.239889,-0.239889 0.239889,-0.804333 v -0.761999 q 0,-0.536222 -0.197556,-0.776111 -0.183444,-0.239888 -0.592666,-0.239888 h -0.705555 v 2.82222 z"
         style="font-size:14.1111px;font-family:'Bebas Neue';-inkscape-font-specification:'Bebas Neue';stroke:none;fill:#ffde59;fill-opacity:1"
         id="path7346" />
      <path
         d="m 30.8408,33.374027 h 1.566332 l 1.015999,7.662327 h 0.02822 l 1.015999,-7.662327 h 1.425221 l -1.495776,9.87777 h -2.060221 z"
         style="font-size:14.1111px;font-family:'Bebas Neue';-inkscape-font-specification:'Bebas Neue';stroke:none;fill:#ffde59;fill-opacity:1"
         id="path7348" />
      <path
         d="m 36.640461,33.374027 h 1.552221 v 9.87777 h -1.552221 z"
         style="font-size:14.1111px;font-family:'Bebas Neue';-inkscape-font-specification:'Bebas Neue';stroke:none;fill:#ffde59;fill-opacity:1"
         id="path7350" />
      <path
         d="m 39.349785,33.374027 h 4.23333 v 1.41111 h -2.681109 v 2.610553 h 2.130776 v 1.41111 h -2.130776 v 3.033887 h 2.681109 v 1.41111 h -4.23333 z"
         style="font-size:14.1111px;font-family:'Bebas Neue';-inkscape-font-specification:'Bebas Neue';stroke:none;fill:#ffde59;fill-opacity:1"
         id="path7352" />
      <path
         d="m 44.105211,33.374027 h 1.495777 l 0.691444,7.591771 h 0.02822 l 0.733777,-7.591771 h 1.693332 l 0.733777,7.591771 h 0.02822 l 0.691443,-7.591771 h 1.340555 l -1.001888,9.87777 h -1.933221 l -0.705555,-6.66044 h -0.02822 l -0.705555,6.66044 h -2.060221 z"
         style="font-size:14.1111px;font-family:'Bebas Neue';-inkscape-font-specification:'Bebas Neue';stroke:none;fill:#ffde59;fill-opacity:1"
         id="path7354" />
      <path
         d="m 54.349858,43.392908 q -1.128888,0 -1.707443,-0.635 -0.578555,-0.64911 -0.578555,-1.848554 V 40.34491 h 1.467554 v 0.677333 q 0,0.959555 0.804333,0.959555 0.395111,0 0.592666,-0.225778 0.211667,-0.239889 0.211667,-0.761999 0,-0.620889 -0.282222,-1.086555 -0.282222,-0.479777 -1.044222,-1.142999 -0.959555,-0.846666 -1.340554,-1.523999 -0.381,-0.691444 -0.381,-1.552221 0,-1.171221 0.592666,-1.806221 0.592666,-0.64911 1.721554,-0.64911 1.114777,0 1.679221,0.64911 0.578555,0.635 0.578555,1.834443 v 0.409222 h -1.467554 v -0.507999 q 0,-0.508 -0.197555,-0.733778 -0.197556,-0.239888 -0.578555,-0.239888 -0.776111,0 -0.776111,0.945443 0,0.536222 0.282222,1.001888 0.296333,0.465667 1.058333,1.128888 0.973665,0.846666 1.340554,1.53811 0.366889,0.691444 0.366889,1.622777 0,1.213555 -0.606778,1.862665 -0.592666,0.649111 -1.735665,0.649111 z"
         style="font-size:14.1111px;font-family:'Bebas Neue';-inkscape-font-specification:'Bebas Neue';stroke:none;fill:#ffde59;fill-opacity:1"
         id="path7356" />
      <path
         d="m 6.6262479,46.012916 h 2.3706648 q 1.1571103,0 1.7356653,0.620888 0.578555,0.620889 0.578555,1.820332 v 4.99533 q 0,1.199443 -0.578555,1.820332 -0.578555,0.620888 -1.7356653,0.620888 H 6.6262479 Z m 2.3424426,8.46666 q 0.3809997,0 0.5785551,-0.225778 0.2116665,-0.225777 0.2116665,-0.733777 v -5.13644 q 0,-0.508 -0.2116665,-0.733777 Q 9.3496902,47.424026 8.9686905,47.424026 H 8.1784689 v 7.05555 z"
         style="font-size:14.1111px;font-family:'Bebas Neue';-inkscape-font-specification:'Bebas Neue';stroke:none;fill:#ffde59;fill-opacity:1"
         id="path7358" />
      <path
         d="m 12.35533,46.012916 h 4.23333 v 1.41111 h -2.681109 v 2.610553 h 2.130776 v 1.41111 h -2.130776 v 3.033887 h 2.681109 v 1.41111 h -4.23333 z"
         style="font-size:14.1111px;font-family:'Bebas Neue';-inkscape-font-specification:'Bebas Neue';stroke:none;fill:#ffde59;fill-opacity:1"
         id="path7360" />
      <path
         d="m 21.922639,56.031797 q -1.114777,0 -1.707443,-0.634999 -0.578555,-0.635 -0.578555,-1.79211 v -5.305774 q 0,-1.15711 0.578555,-1.79211 0.592666,-0.634999 1.707443,-0.634999 1.114777,0 1.693332,0.634999 0.592667,0.635 0.592667,1.79211 v 1.044222 h -1.467555 v -1.143 q 0,-0.917221 -0.77611,-0.917221 -0.776111,0 -0.776111,0.917221 v 5.517441 q 0,0.90311 0.776111,0.90311 0.77611,0 0.77611,-0.90311 v -1.509888 h 1.467555 v 1.396999 q 0,1.15711 -0.592667,1.79211 -0.578555,0.634999 -1.693332,0.634999 z"
         style="font-size:14.1111px;font-family:'Bebas Neue';-inkscape-font-specification:'Bebas Neue';stroke:none;fill:#ffde59;fill-opacity:1"
         id="path7362" />
      <path
         d="m 25.139962,46.012916 h 1.552221 v 4.021663 h 1.66511 v -4.021663 h 1.552221 v 9.87777 h -1.552221 v -4.444997 h -1.66511 v 4.444997 h -1.552221 z"
         style="font-size:14.1111px;font-family:'Bebas Neue';-inkscape-font-specification:'Bebas Neue';stroke:none;fill:#ffde59;fill-opacity:1"
         id="path7364" />
      <path
         d="m 32.266041,46.012916 h 2.102554 l 1.608665,9.87777 h -1.552221 l -0.282222,-1.961443 v 0.02822 H 32.37893 l -0.282222,1.933221 h -1.439332 z m 1.693332,6.603995 -0.691444,-4.882441 h -0.02822 l -0.677333,4.882441 z"
         style="font-size:14.1111px;font-family:'Bebas Neue';-inkscape-font-specification:'Bebas Neue';stroke:none;fill:#ffde59;fill-opacity:1"
         id="path7366" />
      <path
         d="m 36.725136,46.012916 h 1.947332 l 1.509888,5.912551 h 0.02822 v -5.912551 h 1.382888 v 9.87777 h -1.594554 l -1.862666,-7.210772 h -0.02822 v 7.210772 h -1.382888 z"
         style="font-size:14.1111px;font-family:'Bebas Neue';-inkscape-font-specification:'Bebas Neue';stroke:none;fill:#ffde59;fill-opacity:1"
         id="path7368" />
      <path
         d="m 43.964104,47.424026 h -1.622776 v -1.41111 h 4.797774 v 1.41111 h -1.622777 v 8.46666 h -1.552221 z"
         style="font-size:14.1111px;font-family:'Bebas Neue';-inkscape-font-specification:'Bebas Neue';stroke:none;fill:#ffde59;fill-opacity:1"
         id="path7370" />
      <path
         d="m 47.886967,46.012916 h 4.23333 v 1.41111 h -2.681109 v 2.610553 h 2.130776 v 1.41111 h -2.130776 v 3.033887 h 2.681109 v 1.41111 h -4.23333 z"
         style="font-size:14.1111px;font-family:'Bebas Neue';-inkscape-font-specification:'Bebas Neue';stroke:none;fill:#ffde59;fill-opacity:1"
         id="path7372" />
      <path
         d="m 55.267058,56.031797 q -1.128888,0 -1.721555,-0.634999 -0.592666,-0.649111 -0.592666,-1.848555 v -7.535327 h 1.552221 v 7.648216 q 0,0.508 0.197556,0.733777 0.211666,0.225778 0.592666,0.225778 0.381,0 0.578555,-0.225778 0.211666,-0.225777 0.211666,-0.733777 v -7.648216 h 1.495777 v 7.535327 q 0,1.199444 -0.592666,1.848555 -0.592666,0.634999 -1.721554,0.634999 z"
         style="font-size:14.1111px;font-family:'Bebas Neue';-inkscape-font-specification:'Bebas Neue';stroke:none;fill:#ffde59;fill-opacity:1"
         id="path7374" />
      <path
         d="m 58.681923,46.012916 h 2.30011 q 1.199443,0 1.749776,0.564444 0.550333,0.550333 0.550333,1.707443 v 0.606777 q 0,1.53811 -1.015999,1.947332 v 0.02822 q 0.564444,0.169334 0.790221,0.691444 0.239889,0.522111 0.239889,1.396999 v 1.735666 q 0,0.423333 0.02822,0.691443 0.02822,0.254 0.141111,0.508 h -1.580443 q -0.08467,-0.239889 -0.112889,-0.451555 -0.02822,-0.211667 -0.02822,-0.762 v -1.80622 q 0,-0.677333 -0.225777,-0.945444 -0.211667,-0.268111 -0.747889,-0.268111 h -0.536222 v 4.23333 h -1.552221 z m 2.116665,4.23333 q 0.465667,0 0.691444,-0.239889 0.239889,-0.239888 0.239889,-0.804332 v -0.762 q 0,-0.536222 -0.197555,-0.77611 -0.183445,-0.239889 -0.592667,-0.239889 h -0.705555 v 2.82222 z"
         style="font-size:14.1111px;font-family:'Bebas Neue';-inkscape-font-specification:'Bebas Neue';stroke:none;fill:#ffde59;fill-opacity:1"
         id="path7376" />
      <path
         d="m 6.4816081,60.429535 h 1.7779943 q 0.8678306,0 1.3017459,0.465665 0.4339152,0.465665 0.4339152,1.365246 v 3.746488 q 0,0.89958 -0.4339152,1.365246 -0.4339153,0.465665 -1.3017459,0.465665 H 6.4816081 Z m 1.7568277,6.34998 q 0.2857491,0 0.4339153,-0.169333 0.1587495,-0.169333 0.1587495,-0.550331 v -3.852322 q 0,-0.380998 -0.1587495,-0.550331 Q 8.5241849,61.487865 8.2384358,61.487865 H 7.645771 v 5.29165 z"
         style="font-size:10.5833px;font-family:'Bebas Neue';-inkscape-font-specification:'Bebas Neue';stroke:none;fill:#ffffff;fill-opacity:1"
         id="path7378" />
      <path
         d="m 10.778409,60.429535 h 3.17499 v 1.05833 h -2.010827 v 1.95791 h 1.598078 v 1.05833 h -1.598078 v 2.27541 h 2.010827 v 1.05833 h -3.17499 z m 1.693328,-1.714494 h 1.269996 L 12.60932,59.93212 h -0.878414 z"
         style="font-size:10.5833px;font-family:'Bebas Neue';-inkscape-font-specification:'Bebas Neue';stroke:none;fill:#ffffff;fill-opacity:1"
         id="path7380" />
      <path
         d="m 16.260547,67.943678 q -0.83608,0 -1.280579,-0.476249 -0.433915,-0.476248 -0.433915,-1.344079 v -3.97932 q 0,-0.867831 0.433915,-1.344079 0.444499,-0.476249 1.280579,-0.476249 0.836081,0 1.269996,0.476249 0.444499,0.476248 0.444499,1.344079 v 0.783164 h -1.100663 v -0.857247 q 0,-0.687915 -0.582082,-0.687915 -0.582081,0 -0.582081,0.687915 v 4.13807 q 0,0.677331 0.582081,0.677331 0.582082,0 0.582082,-0.677331 v -1.132413 h 1.100663 v 1.047746 q 0,0.867831 -0.444499,1.344079 -0.433915,0.476249 -1.269996,0.476249 z"
         style="font-size:10.5833px;font-family:'Bebas Neue';-inkscape-font-specification:'Bebas Neue';stroke:none;fill:#ffffff;fill-opacity:1"
         id="path7382" />
      <path
         d="m 20.377433,67.943678 q -0.857247,0 -1.312329,-0.486832 -0.455082,-0.486832 -0.455082,-1.375829 v -3.894654 q 0,-0.888997 0.455082,-1.375829 0.455082,-0.486832 1.312329,-0.486832 0.857247,0 1.312329,0.486832 0.455082,0.486832 0.455082,1.375829 v 3.894654 q 0,0.888997 -0.455082,1.375829 -0.455082,0.486832 -1.312329,0.486832 z m 0,-1.05833 q 0.603248,0 0.603248,-0.730248 v -4.04282 q 0,-0.730248 -0.603248,-0.730248 -0.603248,0 -0.603248,0.730248 v 4.04282 q 0,0.730248 0.603248,0.730248 z"
         style="font-size:10.5833px;font-family:'Bebas Neue';-inkscape-font-specification:'Bebas Neue';stroke:none;fill:#ffffff;fill-opacity:1"
         id="path7384" />
      <path
         d="m 24.621332,67.943678 q -0.846664,0 -1.291163,-0.476249 -0.444498,-0.486831 -0.444498,-1.386412 v -5.651482 h 1.164163 v 5.736149 q 0,0.380998 0.148166,0.550331 0.158749,0.169333 0.444498,0.169333 0.28575,0 0.433916,-0.169333 0.158749,-0.169333 0.158749,-0.550331 v -5.736149 h 1.12183 v 5.651482 q 0,0.899581 -0.444499,1.386412 -0.444498,0.476249 -1.291162,0.476249 z"
         style="font-size:10.5833px;font-family:'Bebas Neue';-inkscape-font-specification:'Bebas Neue';stroke:none;fill:#ffffff;fill-opacity:1"
         id="path7386" />
      <path
         d="m 26.875559,60.429535 h 1.174746 l 0.761998,5.746732 h 0.02117 l 0.761997,-5.746732 h 1.068913 l -1.121829,7.40831 h -1.545162 z"
         style="font-size:10.5833px;font-family:'Bebas Neue';-inkscape-font-specification:'Bebas Neue';stroke:none;fill:#ffffff;fill-opacity:1"
         id="path7388" />
      <path
         d="m 31.225295,60.429535 h 1.725078 q 0.89958,0 1.312329,0.423332 0.412748,0.412749 0.412748,1.280579 v 0.455082 q 0,1.15358 -0.761997,1.460496 v 0.02117 q 0.423332,0.127 0.592665,0.518582 0.179916,0.391582 0.179916,1.047747 v 1.301745 q 0,0.317499 0.02117,0.518582 0.02117,0.190499 0.105833,0.380999 h -1.185329 q -0.0635,-0.179916 -0.08467,-0.338666 -0.02117,-0.158749 -0.02117,-0.571498 v -1.354662 q 0,-0.507999 -0.169333,-0.709081 -0.15875,-0.201083 -0.560915,-0.201083 h -0.402165 v 3.17499 h -1.164163 z m 1.587495,3.17499 q 0.349249,0 0.518581,-0.179916 0.179916,-0.179916 0.179916,-0.603248 v -0.571498 q 0,-0.402166 -0.148166,-0.582082 -0.137583,-0.179916 -0.444498,-0.179916 h -0.529165 v 2.11666 z"
         style="font-size:10.5833px;font-family:'Bebas Neue';-inkscape-font-specification:'Bebas Neue';stroke:none;fill:#ffffff;fill-opacity:1"
         id="path7390" />
      <path
         d="m 35.490363,60.429535 h 3.17499 v 1.05833 h -2.010827 v 1.95791 h 1.598078 v 1.05833 h -1.598078 v 2.27541 h 2.010827 v 1.05833 h -3.17499 z"
         style="font-size:10.5833px;font-family:'Bebas Neue';-inkscape-font-specification:'Bebas Neue';stroke:none;fill:#ffffff;fill-opacity:1"
         id="path7392" />
      <path
         d="m 39.120411,66.800681 2.158993,-5.312816 h -2.05316 v -1.05833 h 3.301989 v 1.037163 l -2.158993,5.312817 h 2.158993 v 1.05833 h -3.407822 z"
         style="font-size:10.5833px;font-family:'Bebas Neue';-inkscape-font-specification:'Bebas Neue';stroke:none;fill:#ffffff;fill-opacity:1"
         id="path7394" />
      <path
         d="m 44.877722,60.429535 h 1.164163 v 6.34998 h 1.915578 v 1.05833 h -3.079741 z"
         style="font-size:10.5833px;font-family:'Bebas Neue';-inkscape-font-specification:'Bebas Neue';stroke:none;fill:#ffffff;fill-opacity:1"
         id="path7396" />
      <path
         d="m 48.518374,60.429535 h 3.17499 v 1.05833 h -2.010827 v 1.95791 h 1.598078 v 1.05833 h -1.598078 v 2.27541 h 2.010827 v 1.05833 h -3.17499 z"
         style="font-size:10.5833px;font-family:'Bebas Neue';-inkscape-font-specification:'Bebas Neue';stroke:none;fill:#ffffff;fill-opacity:1"
         id="path7398" />
      <path
         d="m 54.05343,67.943678 q -0.846664,0 -1.291162,-0.476249 -0.444499,-0.486831 -0.444499,-1.386412 v -5.651482 h 1.164163 v 5.736149 q 0,0.380998 0.148166,0.550331 0.15875,0.169333 0.444499,0.169333 0.285749,0 0.433915,-0.169333 0.15875,-0.169333 0.15875,-0.550331 v -5.736149 h 1.121829 v 5.651482 q 0,0.899581 -0.444498,1.386412 -0.444499,0.476249 -1.291163,0.476249 z"
         style="font-size:10.5833px;font-family:'Bebas Neue';-inkscape-font-specification:'Bebas Neue';stroke:none;fill:#ffffff;fill-opacity:1"
         id="path7400" />
      <path
         d="m 56.614573,60.429535 h 1.725078 q 0.89958,0 1.312329,0.423332 0.412749,0.412749 0.412749,1.280579 v 0.455082 q 0,1.15358 -0.761998,1.460496 v 0.02117 q 0.423332,0.127 0.592665,0.518582 0.179916,0.391582 0.179916,1.047747 v 1.301745 q 0,0.317499 0.02117,0.518582 0.02117,0.190499 0.105833,0.380999 h -1.18533 q -0.0635,-0.179916 -0.08467,-0.338666 -0.02117,-0.158749 -0.02117,-0.571498 v -1.354662 q 0,-0.507999 -0.169333,-0.709081 -0.158749,-0.201083 -0.560915,-0.201083 h -0.402165 v 3.17499 h -1.164163 z m 1.587495,3.17499 q 0.349249,0 0.518582,-0.179916 0.179916,-0.179916 0.179916,-0.603248 v -0.571498 q 0,-0.402166 -0.148166,-0.582082 -0.137583,-0.179916 -0.444499,-0.179916 h -0.529165 v 2.11666 z"
         style="font-size:10.5833px;font-family:'Bebas Neue';-inkscape-font-specification:'Bebas Neue';stroke:none;fill:#ffffff;fill-opacity:1"
         id="path7402" />
      <path
         d="m 62.393053,67.943678 q -0.846664,0 -1.280579,-0.476249 -0.433915,-0.486831 -0.433915,-1.386412 v -0.423332 h 1.100663 v 0.507999 q 0,0.719664 0.603248,0.719664 0.296332,0 0.444498,-0.169333 0.15875,-0.179916 0.15875,-0.571498 0,-0.465665 -0.211666,-0.814914 -0.211666,-0.359832 -0.783164,-0.857247 -0.719665,-0.634998 -1.005414,-1.142997 -0.285749,-0.518581 -0.285749,-1.164163 0,-0.878414 0.444499,-1.354662 0.444498,-0.486832 1.291162,-0.486832 0.836081,0 1.259413,0.486832 0.433915,0.476248 0.433915,1.375829 v 0.306916 H 63.028051 V 62.11228 q 0,-0.380999 -0.148166,-0.550332 -0.148166,-0.179916 -0.433915,-0.179916 -0.582082,0 -0.582082,0.709081 0,0.402166 0.211666,0.751414 0.222249,0.349249 0.793748,0.846664 0.730247,0.634998 1.005413,1.15358 0.275166,0.518582 0.275166,1.21708 0,0.910163 -0.455082,1.396995 -0.444499,0.486832 -1.301746,0.486832 z"
         style="font-size:10.5833px;font-family:'Bebas Neue';-inkscape-font-specification:'Bebas Neue';stroke:none;fill:#ffffff;fill-opacity:1"
         id="path7404" />
      <path
         d="M 6.4816081,70.053795 H 7.645771 v 7.40831 H 6.4816081 Z"
         style="font-size:10.5833px;font-family:'Bebas Neue';-inkscape-font-specification:'Bebas Neue';stroke:none;fill:#ffffff;fill-opacity:1"
         id="path7406" />
      <path
         d="m 8.5135957,70.053795 h 1.4604954 l 1.1324129,4.434403 h 0.02117 v -4.434403 h 1.037163 v 7.40831 H 10.968921 L 9.5719257,72.054039 h -0.021167 v 5.408066 H 8.5135957 Z"
         style="font-size:10.5833px;font-family:'Bebas Neue';-inkscape-font-specification:'Bebas Neue';stroke:none;fill:#ffffff;fill-opacity:1"
         id="path7408" />
      <path
         d="m 14.546057,77.567938 q -0.846664,0 -1.28058,-0.476249 -0.433915,-0.486831 -0.433915,-1.386412 v -0.423332 h 1.100663 v 0.507998 q 0,0.719665 0.603248,0.719665 0.296333,0 0.444499,-0.169333 0.15875,-0.179916 0.15875,-0.571498 0,-0.465665 -0.211666,-0.814914 -0.211666,-0.359832 -0.783165,-0.857247 -0.719664,-0.634998 -1.005413,-1.142997 -0.285749,-0.518582 -0.285749,-1.164163 0,-0.878414 0.444498,-1.354662 0.444499,-0.486832 1.291163,-0.486832 0.836081,0 1.259413,0.486832 0.433915,0.476248 0.433915,1.375829 v 0.306915 H 15.181055 V 71.73654 q 0,-0.380999 -0.148166,-0.550332 -0.148167,-0.179916 -0.433916,-0.179916 -0.582081,0 -0.582081,0.709081 0,0.402165 0.211666,0.751414 0.222249,0.349249 0.793747,0.846664 0.730248,0.634998 1.005414,1.15358 0.275165,0.518582 0.275165,1.217079 0,0.910164 -0.455081,1.396996 -0.444499,0.486832 -1.301746,0.486832 z"
         style="font-size:10.5833px;font-family:'Bebas Neue';-inkscape-font-specification:'Bebas Neue';stroke:none;fill:#ffffff;fill-opacity:1"
         id="path7410" />
      <path
         d="m 16.96963,70.053795 h 1.714494 q 0.867831,0 1.301746,0.465665 0.433916,0.465665 0.433916,1.365246 v 0.730248 q 0,0.89958 -0.433916,1.365245 -0.433915,0.465665 -1.301746,0.465665 h -0.550331 v 3.016241 H 16.96963 Z m 1.714494,3.333739 q 0.28575,0 0.423332,-0.158749 0.148167,-0.15875 0.148167,-0.539748 v -0.878414 q 0,-0.380999 -0.148167,-0.539748 -0.137582,-0.15875 -0.423332,-0.15875 h -0.550331 v 2.275409 z"
         style="font-size:10.5833px;font-family:'Bebas Neue';-inkscape-font-specification:'Bebas Neue';stroke:none;fill:#ffffff;fill-opacity:1"
         id="path7412" />
      <path
         d="m 21.05478,70.053795 h 1.164163 v 7.40831 H 21.05478 Z"
         style="font-size:10.5833px;font-family:'Bebas Neue';-inkscape-font-specification:'Bebas Neue';stroke:none;fill:#ffffff;fill-opacity:1"
         id="path7414" />
      <path
         d="m 23.086768,70.053795 h 1.725078 q 0.89958,0 1.312329,0.423332 0.412749,0.412749 0.412749,1.280579 v 0.455082 q 0,1.15358 -0.761998,1.460496 v 0.02117 q 0.423332,0.127 0.592665,0.518582 0.179916,0.391582 0.179916,1.047746 v 1.301746 q 0,0.317499 0.02117,0.518582 0.02117,0.190499 0.105833,0.380999 h -1.185329 q -0.0635,-0.179916 -0.08467,-0.338666 -0.02117,-0.158749 -0.02117,-0.571498 v -1.354662 q 0,-0.507999 -0.169333,-0.709081 -0.158749,-0.201083 -0.560915,-0.201083 h -0.402165 v 3.17499 h -1.164163 z m 1.587495,3.17499 q 0.349249,0 0.518581,-0.179916 0.179917,-0.179916 0.179917,-0.603248 v -0.571498 q 0,-0.402166 -0.148167,-0.582082 -0.137583,-0.179916 -0.444498,-0.179916 h -0.529165 v 2.11666 z"
         style="font-size:10.5833px;font-family:'Bebas Neue';-inkscape-font-specification:'Bebas Neue';stroke:none;fill:#ffffff;fill-opacity:1"
         id="path7416" />
      <path
         d="m 28.251416,70.053795 h 1.576912 l 1.206496,7.40831 h -1.164163 l -0.211666,-1.471079 v 0.02117 h -1.322912 l -0.211666,1.449912 H 27.04492 Z m 1.269996,4.952984 -0.518581,-3.661821 h -0.02117 l -0.507998,3.661821 z"
         style="font-size:10.5833px;font-family:'Bebas Neue';-inkscape-font-specification:'Bebas Neue';stroke:none;fill:#ffffff;fill-opacity:1"
         id="path7418" />
      <path
         d="m 32.019045,71.112125 h -1.217079 v -1.05833 h 3.598322 v 1.05833 h -1.21708 v 6.34998 h -1.164163 z"
         style="font-size:10.5833px;font-family:'Bebas Neue';-inkscape-font-specification:'Bebas Neue';stroke:none;fill:#ffffff;fill-opacity:1"
         id="path7420" />
      <path
         d="m 34.961186,70.053795 h 1.164163 v 7.40831 h -1.164163 z"
         style="font-size:10.5833px;font-family:'Bebas Neue';-inkscape-font-specification:'Bebas Neue';stroke:none;fill:#ffffff;fill-opacity:1"
         id="path7422" />
      <path
         d="m 38.675919,77.567938 q -0.857247,0 -1.312329,-0.486832 -0.455082,-0.486832 -0.455082,-1.375829 v -3.894654 q 0,-0.888997 0.455082,-1.375829 0.455082,-0.486832 1.312329,-0.486832 0.857247,0 1.312329,0.486832 0.455082,0.486832 0.455082,1.375829 v 3.894654 q 0,0.888997 -0.455082,1.375829 -0.455082,0.486832 -1.312329,0.486832 z m 0,-1.05833 q 0.603248,0 0.603248,-0.730248 v -4.04282 q 0,-0.730248 -0.603248,-0.730248 -0.603248,0 -0.603248,0.730248 v 4.04282 q 0,0.730248 0.603248,0.730248 z"
         style="font-size:10.5833px;font-family:'Bebas Neue';-inkscape-font-specification:'Bebas Neue';stroke:none;fill:#ffffff;fill-opacity:1"
         id="path7424" />
      <path
         d="m 41.226489,70.053795 h 1.460495 l 1.132413,4.434403 h 0.02117 v -4.434403 h 1.037163 v 7.40831 h -1.195913 l -1.396995,-5.408066 h -0.02117 v 5.408066 h -1.037163 z"
         style="font-size:10.5833px;font-family:'Bebas Neue';-inkscape-font-specification:'Bebas Neue';stroke:none;fill:#ffffff;fill-opacity:1"
         id="path7426" />
      <path
         d="m 47.258951,77.567938 q -0.846664,0 -1.280579,-0.476249 -0.433915,-0.486831 -0.433915,-1.386412 v -0.423332 h 1.100663 v 0.507998 q 0,0.719665 0.603248,0.719665 0.296332,0 0.444498,-0.169333 0.15875,-0.179916 0.15875,-0.571498 0,-0.465665 -0.211666,-0.814914 -0.211666,-0.359832 -0.783164,-0.857247 -0.719665,-0.634998 -1.005414,-1.142997 -0.285749,-0.518582 -0.285749,-1.164163 0,-0.878414 0.444499,-1.354662 0.444498,-0.486832 1.291162,-0.486832 0.836081,0 1.259413,0.486832 0.433915,0.476248 0.433915,1.375829 v 0.306915 H 47.893949 V 71.73654 q 0,-0.380999 -0.148166,-0.550332 -0.148166,-0.179916 -0.433915,-0.179916 -0.582082,0 -0.582082,0.709081 0,0.402165 0.211666,0.751414 0.222249,0.349249 0.793748,0.846664 0.730247,0.634998 1.005413,1.15358 0.275166,0.518582 0.275166,1.217079 0,0.910164 -0.455082,1.396996 -0.444499,0.486832 -1.301746,0.486832 z"
         style="font-size:10.5833px;font-family:'Bebas Neue';-inkscape-font-specification:'Bebas Neue';stroke:none;fill:#ffffff;fill-opacity:1"
         id="path7428" />
    </g>
  </g>
</svg>
