<?xml version="1.0" encoding="UTF-8" standalone="no"?>
<!-- Generator: Adobe Illustrator 19.0.0, SVG Export Plug-In . SVG Version: 6.00 Build 0)  -->

<svg
   xmlns:dc="http://purl.org/dc/elements/1.1/"
   xmlns:cc="http://creativecommons.org/ns#"
   xmlns:rdf="http://www.w3.org/1999/02/22-rdf-syntax-ns#"
   xmlns:svg="http://www.w3.org/2000/svg"
   xmlns="http://www.w3.org/2000/svg"
   xmlns:sodipodi="http://sodipodi.sourceforge.net/DTD/sodipodi-0.dtd"
   xmlns:inkscape="http://www.inkscape.org/namespaces/inkscape"
   version="1.1"
   id="Capa_1"
   x="0px"
   y="0px"
   viewBox="0 0 490.52389 255.98802"
   xml:space="preserve"
   sodipodi:docname="up-arrow-gold.svg"
   inkscape:version="0.92.4 (5da689c313, 2019-01-14)"
   width="490.5239"
   height="255.98802"><metadata
   id="metadata4750"><rdf:RDF><cc:Work
       rdf:about=""><dc:format>image/svg+xml</dc:format><dc:type
         rdf:resource="http://purl.org/dc/dcmitype/StillImage" /><dc:title></dc:title></cc:Work></rdf:RDF></metadata><defs
   id="defs4748" /><sodipodi:namedview
   pagecolor="#ffffff"
   bordercolor="#666666"
   borderopacity="1"
   objecttolerance="10"
   gridtolerance="10"
   guidetolerance="10"
   inkscape:pageopacity="0"
   inkscape:pageshadow="2"
   inkscape:window-width="1366"
   inkscape:window-height="705"
   id="namedview4746"
   showgrid="false"
   inkscape:zoom="0.48111912"
   inkscape:cx="245.26226"
   inkscape:cy="128.00451"
   inkscape:window-x="-8"
   inkscape:window-y="-8"
   inkscape:window-maximized="1"
   inkscape:current-layer="Capa_1"
   fit-margin-top="0"
   fit-margin-left="0"
   fit-margin-right="0"
   fit-margin-bottom="0" />
<path
   style="fill:#ffc107"
   d="M 487.41175,237.769 252.74475,3.102 c -4.165,-4.164 -10.917,-4.164 -15.083,0 L 2.99475,237.769 c -4.093,4.237 -3.976,10.99 0.262,15.083 4.134,3.993 10.687,3.993 14.821,0 l 227.115,-227.115 227.115,227.136 c 4.237,4.093 10.99,3.976 15.083,-0.261 3.993,-4.134 3.993,-10.688 0,-14.821 z"
   id="path4711"
   inkscape:connector-curvature="0" />
<path
   d="m 479.85975,255.988 c -2.831,0.005 -5.548,-1.115 -7.552,-3.115 L 245.19275,25.737 18.07775,252.873 c -4.237,4.093 -10.99,3.976 -15.083,-0.262 -3.993,-4.134 -3.993,-10.687 0,-14.821 L 237.66175,3.123 c 4.165,-4.164 10.917,-4.164 15.083,0 l 234.667,234.667 c 4.159,4.172 4.148,10.926 -0.024,15.085 -1.999,1.993 -4.706,3.112 -7.528,3.113 z"
   id="path4713"
   style="fill:none"
   inkscape:connector-curvature="0" />
<g
   id="g4715"
   transform="translate(7.5e-4,-117.278)">
</g>
<g
   id="g4717"
   transform="translate(7.5e-4,-117.278)">
</g>
<g
   id="g4719"
   transform="translate(7.5e-4,-117.278)">
</g>
<g
   id="g4721"
   transform="translate(7.5e-4,-117.278)">
</g>
<g
   id="g4723"
   transform="translate(7.5e-4,-117.278)">
</g>
<g
   id="g4725"
   transform="translate(7.5e-4,-117.278)">
</g>
<g
   id="g4727"
   transform="translate(7.5e-4,-117.278)">
</g>
<g
   id="g4729"
   transform="translate(7.5e-4,-117.278)">
</g>
<g
   id="g4731"
   transform="translate(7.5e-4,-117.278)">
</g>
<g
   id="g4733"
   transform="translate(7.5e-4,-117.278)">
</g>
<g
   id="g4735"
   transform="translate(7.5e-4,-117.278)">
</g>
<g
   id="g4737"
   transform="translate(7.5e-4,-117.278)">
</g>
<g
   id="g4739"
   transform="translate(7.5e-4,-117.278)">
</g>
<g
   id="g4741"
   transform="translate(7.5e-4,-117.278)">
</g>
<g
   id="g4743"
   transform="translate(7.5e-4,-117.278)">
</g>
</svg>