<?xml version="1.0" encoding="UTF-8" standalone="no"?>
<!-- Created with Inkscape (http://www.inkscape.org/) -->

<svg
   width="58.675194mm"
   height="45.33503mm"
   viewBox="0 0 58.675194 45.33503"
   version="1.1"
   id="svg8"
   inkscape:version="1.1 (c68e22c387, 2021-05-23)"
   sodipodi:docname="cover-authors-title.svg"
   xmlns:inkscape="http://www.inkscape.org/namespaces/inkscape"
   xmlns:sodipodi="http://sodipodi.sourceforge.net/DTD/sodipodi-0.dtd"
   xmlns="http://www.w3.org/2000/svg"
   xmlns:svg="http://www.w3.org/2000/svg"
   xmlns:rdf="http://www.w3.org/1999/02/22-rdf-syntax-ns#"
   xmlns:cc="http://creativecommons.org/ns#"
   xmlns:dc="http://purl.org/dc/elements/1.1/">
  <defs
     id="defs2" />
  <sodipodi:namedview
     id="base"
     pagecolor="#ffffff"
     bordercolor="#666666"
     borderopacity="1.0"
     inkscape:pageopacity="0.0"
     inkscape:pageshadow="2"
     inkscape:zoom="1.979899"
     inkscape:cx="76.013979"
     inkscape:cy="90.661191"
     inkscape:document-units="mm"
     inkscape:current-layer="layer1"
     showgrid="false"
     inkscape:window-width="1366"
     inkscape:window-height="705"
     inkscape:window-x="-8"
     inkscape:window-y="-8"
     inkscape:window-maximized="1"
     fit-margin-top="1"
     fit-margin-left="0"
     fit-margin-right="1"
     fit-margin-bottom="0"
     inkscape:pagecheckerboard="1" />
  <metadata
     id="metadata5">
    <rdf:RDF>
      <cc:Work
         rdf:about="">
        <dc:format>image/svg+xml</dc:format>
        <dc:type
           rdf:resource="http://purl.org/dc/dcmitype/StillImage" />
        <dc:title />
      </cc:Work>
    </rdf:RDF>
  </metadata>
  <g
     inkscape:label="Calque 1"
     inkscape:groupmode="layer"
     id="layer1"
     transform="translate(-6.4816094,-32.232907)">
    <g
       aria-label="RENCONTRES
D'AUTEUR
+ EXTRAITS"
       id="text851"
       style="font-size:10.5833px;line-height:1.25;letter-spacing:0px;word-spacing:0px;stroke-width:0.264583">
      <path
         d="m 6.6262479,33.374027 h 2.3001093 q 1.1994438,0 1.7497768,0.564444 0.550333,0.550333 0.550333,1.707443 v 0.606777 q 0,1.53811 -1.016,1.947332 v 0.02822 q 0.564444,0.169333 0.790222,0.691444 0.239889,0.522111 0.239889,1.396999 v 1.735665 q 0,0.423333 0.02822,0.691444 0.02822,0.254 0.141111,0.508 H 9.8294676 q -0.084667,-0.239889 -0.1128888,-0.451555 -0.028222,-0.211667 -0.028222,-0.762 v -1.806221 q 0,-0.677333 -0.2257776,-0.945443 Q 9.2509125,39.018467 8.7146907,39.018467 H 8.1784689 v 4.23333 h -1.552221 z m 2.116665,4.23333 q 0.4656663,0 0.6914439,-0.239889 0.2398887,-0.239889 0.2398887,-0.804333 v -0.761999 q 0,-0.536222 -0.1975554,-0.776111 -0.1834443,-0.239888 -0.5926662,-0.239888 h -0.705555 v 2.82222 z"
         style="font-size:14.1111px;font-family:'Bebas Neue';-inkscape-font-specification:'Bebas Neue';stroke:none;fill:#ffde59;fill-opacity:1"
         id="path3938" />
      <path
         d="m 12.31302,33.374027 h 4.23333 v 1.41111 h -2.681109 v 2.610553 h 2.130776 v 1.41111 h -2.130776 v 3.033887 h 2.681109 v 1.41111 h -4.23333 z"
         style="font-size:14.1111px;font-family:'Bebas Neue';-inkscape-font-specification:'Bebas Neue';stroke:none;fill:#ffde59;fill-opacity:1"
         id="path3940" />
      <path
         d="m 17.435335,33.374027 h 1.947332 l 1.509887,5.912551 h 0.02822 v -5.912551 h 1.382888 v 9.87777 H 20.70911 l -1.862665,-7.210772 h -0.02822 v 7.210772 h -1.382888 z"
         style="font-size:14.1111px;font-family:'Bebas Neue';-inkscape-font-specification:'Bebas Neue';stroke:none;fill:#ffde59;fill-opacity:1"
         id="path3942" />
      <path
         d="m 25.647968,43.392908 q -1.114777,0 -1.707443,-0.635 -0.578555,-0.634999 -0.578555,-1.79211 v -5.305773 q 0,-1.15711 0.578555,-1.79211 0.592666,-0.634999 1.707443,-0.634999 1.114777,0 1.693332,0.634999 0.592666,0.635 0.592666,1.79211 v 1.044221 h -1.467554 v -1.142999 q 0,-0.917221 -0.776111,-0.917221 -0.77611,0 -0.77611,0.917221 v 5.51744 q 0,0.903111 0.77611,0.903111 0.776111,0 0.776111,-0.903111 V 39.5688 h 1.467554 v 1.396998 q 0,1.157111 -0.592666,1.79211 -0.578555,0.635 -1.693332,0.635 z"
         style="font-size:14.1111px;font-family:'Bebas Neue';-inkscape-font-specification:'Bebas Neue';stroke:none;fill:#ffde59;fill-opacity:1"
         id="path3944" />
      <path
         d="m 31.137163,43.392908 q -1.142999,0 -1.749777,-0.649111 -0.606777,-0.64911 -0.606777,-1.834443 v -5.192885 q 0,-1.185332 0.606777,-1.834443 0.606778,-0.64911 1.749777,-0.64911 1.142999,0 1.749776,0.64911 0.606778,0.649111 0.606778,1.834443 v 5.192885 q 0,1.185333 -0.606778,1.834443 -0.606777,0.649111 -1.749776,0.649111 z m 0,-1.41111 q 0.804333,0 0.804333,-0.973666 v -5.39044 q 0,-0.973666 -0.804333,-0.973666 -0.804333,0 -0.804333,0.973666 v 5.39044 q 0,0.973666 0.804333,0.973666 z"
         style="font-size:14.1111px;font-family:'Bebas Neue';-inkscape-font-specification:'Bebas Neue';stroke:none;fill:#ffde59;fill-opacity:1"
         id="path3946" />
      <path
         d="m 34.537934,33.374027 h 1.947332 l 1.509887,5.912551 h 0.02822 v -5.912551 h 1.382887 v 9.87777 h -1.594554 l -1.862665,-7.210772 h -0.02822 v 7.210772 h -1.382888 z"
         style="font-size:14.1111px;font-family:'Bebas Neue';-inkscape-font-specification:'Bebas Neue';stroke:none;fill:#ffde59;fill-opacity:1"
         id="path3948" />
      <path
         d="m 41.776902,34.785137 h -1.622777 v -1.41111 H 44.9519 v 1.41111 h -1.622777 v 8.46666 h -1.552221 z"
         style="font-size:14.1111px;font-family:'Bebas Neue';-inkscape-font-specification:'Bebas Neue';stroke:none;fill:#ffde59;fill-opacity:1"
         id="path3950" />
      <path
         d="m 45.699765,33.374027 h 2.300109 q 1.199444,0 1.749776,0.564444 0.550333,0.550333 0.550333,1.707443 v 0.606777 q 0,1.53811 -1.015999,1.947332 v 0.02822 q 0.564444,0.169333 0.790222,0.691444 0.239888,0.522111 0.239888,1.396999 v 1.735665 q 0,0.423333 0.02822,0.691444 0.02822,0.254 0.141111,0.508 h -1.580444 q -0.08467,-0.239889 -0.112888,-0.451555 -0.02822,-0.211667 -0.02822,-0.762 v -1.806221 q 0,-0.677333 -0.225777,-0.945443 -0.211667,-0.268111 -0.747888,-0.268111 h -0.536222 v 4.23333 h -1.552221 z m 2.116665,4.23333 q 0.465666,0 0.691444,-0.239889 0.239888,-0.239889 0.239888,-0.804333 v -0.761999 q 0,-0.536222 -0.197555,-0.776111 -0.183444,-0.239888 -0.592666,-0.239888 h -0.705555 v 2.82222 z"
         style="font-size:14.1111px;font-family:'Bebas Neue';-inkscape-font-specification:'Bebas Neue';stroke:none;fill:#ffde59;fill-opacity:1"
         id="path3952" />
      <path
         d="m 51.386536,33.374027 h 4.23333 v 1.41111 h -2.681109 v 2.610553 h 2.130776 v 1.41111 h -2.130776 v 3.033887 h 2.681109 v 1.41111 h -4.23333 z"
         style="font-size:14.1111px;font-family:'Bebas Neue';-inkscape-font-specification:'Bebas Neue';stroke:none;fill:#ffde59;fill-opacity:1"
         id="path3954" />
      <path
         d="m 58.554944,43.392908 q -1.128888,0 -1.707443,-0.635 -0.578555,-0.64911 -0.578555,-1.848554 V 40.34491 H 57.7365 v 0.677333 q 0,0.959555 0.804333,0.959555 0.39511,0 0.592666,-0.225778 0.211666,-0.239889 0.211666,-0.761999 0,-0.620889 -0.282222,-1.086555 -0.282222,-0.479777 -1.044221,-1.142999 -0.959555,-0.846666 -1.340555,-1.523999 -0.380999,-0.691444 -0.380999,-1.552221 0,-1.171221 0.592666,-1.806221 0.592666,-0.64911 1.721554,-0.64911 1.114777,0 1.679221,0.64911 0.578555,0.635 0.578555,1.834443 v 0.409222 H 59.40161 v -0.507999 q 0,-0.508 -0.197556,-0.733778 -0.197555,-0.239888 -0.578555,-0.239888 -0.77611,0 -0.77611,0.945443 0,0.536222 0.282222,1.001888 0.296333,0.465667 1.058332,1.128888 0.973666,0.846666 1.340555,1.53811 0.366888,0.691444 0.366888,1.622777 0,1.213555 -0.606777,1.862665 -0.592666,0.649111 -1.735665,0.649111 z"
         style="font-size:14.1111px;font-family:'Bebas Neue';-inkscape-font-specification:'Bebas Neue';stroke:none;fill:#ffde59;fill-opacity:1"
         id="path3956" />
      <path
         d="m 6.6262479,46.012916 h 2.3706648 q 1.1571103,0 1.7356653,0.620888 0.578555,0.620889 0.578555,1.820332 v 4.99533 q 0,1.199443 -0.578555,1.820332 -0.578555,0.620888 -1.7356653,0.620888 H 6.6262479 Z m 2.3424426,8.46666 q 0.3809997,0 0.5785551,-0.225778 0.2116665,-0.225777 0.2116665,-0.733777 v -5.13644 q 0,-0.508 -0.2116665,-0.733777 Q 9.3496902,47.424026 8.9686905,47.424026 H 8.1784689 v 7.05555 z"
         style="font-size:14.1111px;font-family:'Bebas Neue';-inkscape-font-specification:'Bebas Neue';stroke:none;fill:#ffde59;fill-opacity:1"
         id="path3958" />
      <path
         d="m 12.228322,46.012916 h 1.580444 l -0.381,3.189109 h -0.832555 z"
         style="font-size:14.1111px;font-family:'Bebas Neue';-inkscape-font-specification:'Bebas Neue';stroke:none;fill:#ffde59;fill-opacity:1"
         id="path3960" />
      <path
         d="m 15.375074,46.012916 h 2.102554 l 1.608665,9.87777 H 17.534072 L 17.25185,53.929243 v 0.02822 h -1.763887 l -0.282222,1.933221 h -1.439332 z m 1.693332,6.603995 -0.691444,-4.882441 h -0.02822 l -0.677333,4.882441 z"
         style="font-size:14.1111px;font-family:'Bebas Neue';-inkscape-font-specification:'Bebas Neue';stroke:none;fill:#ffde59;fill-opacity:1"
         id="path3962" />
      <path
         d="m 22.06371,56.031797 q -1.128888,0 -1.721554,-0.634999 -0.592666,-0.649111 -0.592666,-1.848555 v -7.535327 h 1.552221 v 7.648216 q 0,0.508 0.197555,0.733777 0.211667,0.225778 0.592667,0.225778 0.380999,0 0.578555,-0.225778 0.211666,-0.225777 0.211666,-0.733777 v -7.648216 h 1.495777 v 7.535327 q 0,1.199444 -0.592666,1.848555 -0.592667,0.634999 -1.721555,0.634999 z"
         style="font-size:14.1111px;font-family:'Bebas Neue';-inkscape-font-specification:'Bebas Neue';stroke:none;fill:#ffde59;fill-opacity:1"
         id="path3964" />
      <path
         d="m 26.69213,47.424026 h -1.622777 v -1.41111 h 4.797774 v 1.41111 h -1.622776 v 8.46666 H 26.69213 Z"
         style="font-size:14.1111px;font-family:'Bebas Neue';-inkscape-font-specification:'Bebas Neue';stroke:none;fill:#ffde59;fill-opacity:1"
         id="path3966" />
      <path
         d="m 30.614995,46.012916 h 4.23333 v 1.41111 h -2.681109 v 2.610553 h 2.130776 v 1.41111 h -2.130776 v 3.033887 h 2.681109 v 1.41111 h -4.23333 z"
         style="font-size:14.1111px;font-family:'Bebas Neue';-inkscape-font-specification:'Bebas Neue';stroke:none;fill:#ffde59;fill-opacity:1"
         id="path3968" />
      <path
         d="m 37.995085,56.031797 q -1.128888,0 -1.721554,-0.634999 -0.592666,-0.649111 -0.592666,-1.848555 v -7.535327 h 1.552221 v 7.648216 q 0,0.508 0.197555,0.733777 0.211667,0.225778 0.592666,0.225778 0.381,0 0.578555,-0.225778 0.211667,-0.225777 0.211667,-0.733777 v -7.648216 h 1.495776 v 7.535327 q 0,1.199444 -0.592666,1.848555 -0.592666,0.634999 -1.721554,0.634999 z"
         style="font-size:14.1111px;font-family:'Bebas Neue';-inkscape-font-specification:'Bebas Neue';stroke:none;fill:#ffde59;fill-opacity:1"
         id="path3970" />
      <path
         d="m 41.409951,46.012916 h 2.300109 q 1.199444,0 1.749776,0.564444 0.550333,0.550333 0.550333,1.707443 v 0.606777 q 0,1.53811 -1.015999,1.947332 v 0.02822 q 0.564444,0.169334 0.790222,0.691444 0.239888,0.522111 0.239888,1.396999 v 1.735666 q 0,0.423333 0.02822,0.691443 0.02822,0.254 0.141111,0.508 H 44.61317 q -0.08467,-0.239889 -0.112888,-0.451555 -0.02822,-0.211667 -0.02822,-0.762 v -1.80622 q 0,-0.677333 -0.225777,-0.945444 -0.211667,-0.268111 -0.747888,-0.268111 h -0.536222 v 4.23333 h -1.552221 z m 2.116665,4.23333 q 0.465666,0 0.691444,-0.239889 0.239888,-0.239888 0.239888,-0.804332 v -0.762 q 0,-0.536222 -0.197555,-0.77611 -0.183444,-0.239889 -0.592666,-0.239889 h -0.705555 v 2.82222 z"
         style="font-size:14.1111px;font-family:'Bebas Neue';-inkscape-font-specification:'Bebas Neue';stroke:none;fill:#ffde59;fill-opacity:1"
         id="path3972" />
      <path
         d="M 7.751604,64.546439 H 6.3334419 V 63.720941 H 7.751604 v -1.428745 h 0.8254974 v 1.428745 h 1.4181621 v 0.825498 H 8.5771014 v 1.449912 H 7.751604 Z"
         style="font-size:10.5833px;font-family:'Bebas Neue';-inkscape-font-specification:'Bebas Neue';stroke:none;fill:#ffffff;fill-opacity:1"
         id="path3974" />
      <path
         d="m 12.40825,60.429535 h 3.17499 v 1.05833 h -2.010827 v 1.95791 h 1.598079 v 1.05833 h -1.598079 v 2.27541 h 2.010827 v 1.05833 h -3.17499 z"
         style="font-size:10.5833px;font-family:'Bebas Neue';-inkscape-font-specification:'Bebas Neue';stroke:none;fill:#ffffff;fill-opacity:1"
         id="path3976" />
      <path
         d="m 17.297712,64.049024 -1.280579,-3.619489 h 1.227663 l 0.783164,2.391826 h 0.02117 l 0.804331,-2.391826 h 1.100663 l -1.280579,3.619489 1.344079,3.788821 H 18.789957 L 17.943293,65.25552 h -0.02117 l -0.867831,2.582325 h -1.100663 z"
         style="font-size:10.5833px;font-family:'Bebas Neue';-inkscape-font-specification:'Bebas Neue';stroke:none;fill:#ffffff;fill-opacity:1"
         id="path3978" />
      <path
         d="m 21.478097,61.487865 h -1.21708 v -1.05833 h 3.598322 v 1.05833 h -1.21708 v 6.34998 h -1.164162 z"
         style="font-size:10.5833px;font-family:'Bebas Neue';-inkscape-font-specification:'Bebas Neue';stroke:none;fill:#ffffff;fill-opacity:1"
         id="path3980" />
      <path
         d="m 24.420237,60.429535 h 1.725078 q 0.899581,0 1.312329,0.423332 0.412749,0.412749 0.412749,1.280579 v 0.455082 q 0,1.15358 -0.761998,1.460496 v 0.02117 q 0.423332,0.127 0.592665,0.518582 0.179916,0.391582 0.179916,1.047747 v 1.301745 q 0,0.317499 0.02117,0.518582 0.02117,0.190499 0.105833,0.380999 h -1.18533 q -0.0635,-0.179916 -0.08467,-0.338666 -0.02117,-0.158749 -0.02117,-0.571498 v -1.354662 q 0,-0.507999 -0.169333,-0.709081 -0.158749,-0.201083 -0.560914,-0.201083 H 25.5844 v 3.17499 h -1.164163 z m 1.587495,3.17499 q 0.349249,0 0.518582,-0.179916 0.179916,-0.179916 0.179916,-0.603248 v -0.571498 q 0,-0.402166 -0.148166,-0.582082 -0.137583,-0.179916 -0.444499,-0.179916 H 25.5844 v 2.11666 z"
         style="font-size:10.5833px;font-family:'Bebas Neue';-inkscape-font-specification:'Bebas Neue';stroke:none;fill:#ffffff;fill-opacity:1"
         id="path3982" />
      <path
         d="m 29.584886,60.429535 h 1.576911 l 1.206497,7.40831 h -1.164163 l -0.211666,-1.471079 v 0.02117 h -1.322913 l -0.211666,1.449912 H 28.37839 Z m 1.269996,4.952984 -0.518582,-3.661821 h -0.02117 l -0.507998,3.661821 z"
         style="font-size:10.5833px;font-family:'Bebas Neue';-inkscape-font-specification:'Bebas Neue';stroke:none;fill:#ffffff;fill-opacity:1"
         id="path3984" />
      <path
         d="m 32.9292,60.429535 h 1.164163 v 7.40831 H 32.9292 Z"
         style="font-size:10.5833px;font-family:'Bebas Neue';-inkscape-font-specification:'Bebas Neue';stroke:none;fill:#ffffff;fill-opacity:1"
         id="path3986" />
      <path
         d="m 35.87135,61.487865 h -1.21708 v -1.05833 h 3.598322 v 1.05833 h -1.217079 v 6.34998 H 35.87135 Z"
         style="font-size:10.5833px;font-family:'Bebas Neue';-inkscape-font-specification:'Bebas Neue';stroke:none;fill:#ffffff;fill-opacity:1"
         id="path3988" />
      <path
         d="m 40.326902,67.943678 q -0.846664,0 -1.280579,-0.476249 -0.433915,-0.486831 -0.433915,-1.386412 v -0.423332 h 1.100663 v 0.507999 q 0,0.719664 0.603248,0.719664 0.296332,0 0.444499,-0.169333 0.158749,-0.179916 0.158749,-0.571498 0,-0.465665 -0.211666,-0.814914 -0.211666,-0.359832 -0.783164,-0.857247 -0.719664,-0.634998 -1.005413,-1.142997 -0.28575,-0.518581 -0.28575,-1.164163 0,-0.878414 0.444499,-1.354662 0.444499,-0.486832 1.291163,-0.486832 0.83608,0 1.259412,0.486832 0.433916,0.476248 0.433916,1.375829 v 0.306916 H 40.9619 V 62.11228 q 0,-0.380999 -0.148166,-0.550332 -0.148166,-0.179916 -0.433915,-0.179916 -0.582082,0 -0.582082,0.709081 0,0.402166 0.211666,0.751414 0.22225,0.349249 0.793748,0.846664 0.730248,0.634998 1.005413,1.15358 0.275166,0.518582 0.275166,1.21708 0,0.910163 -0.455082,1.396995 -0.444498,0.486832 -1.301746,0.486832 z"
         style="font-size:10.5833px;font-family:'Bebas Neue';-inkscape-font-specification:'Bebas Neue';stroke:none;fill:#ffffff;fill-opacity:1"
         id="path3990" />
    </g>
  </g>
</svg>
