<?xml version="1.0" encoding="UTF-8" standalone="no"?>
<!-- Created with Inkscape (http://www.inkscape.org/) -->

<svg
   width="58.675194mm"
   height="45.33503mm"
   viewBox="0 0 58.675194 45.33503"
   version="1.1"
   id="svg8"
   inkscape:version="1.1 (c68e22c387, 2021-05-23)"
   sodipodi:docname="cover-topscovers-title.svg"
   xmlns:inkscape="http://www.inkscape.org/namespaces/inkscape"
   xmlns:sodipodi="http://sodipodi.sourceforge.net/DTD/sodipodi-0.dtd"
   xmlns="http://www.w3.org/2000/svg"
   xmlns:svg="http://www.w3.org/2000/svg"
   xmlns:rdf="http://www.w3.org/1999/02/22-rdf-syntax-ns#"
   xmlns:cc="http://creativecommons.org/ns#"
   xmlns:dc="http://purl.org/dc/elements/1.1/">
  <defs
     id="defs2" />
  <sodipodi:namedview
     id="base"
     pagecolor="#ffffff"
     bordercolor="#666666"
     borderopacity="1.0"
     inkscape:pageopacity="0.0"
     inkscape:pageshadow="2"
     inkscape:zoom="1.979899"
     inkscape:cx="79.044437"
     inkscape:cy="80.559665"
     inkscape:document-units="mm"
     inkscape:current-layer="layer1"
     showgrid="false"
     inkscape:window-width="1366"
     inkscape:window-height="705"
     inkscape:window-x="-8"
     inkscape:window-y="-8"
     inkscape:window-maximized="1"
     fit-margin-top="1"
     fit-margin-left="0"
     fit-margin-right="1"
     fit-margin-bottom="0"
     inkscape:pagecheckerboard="1" />
  <metadata
     id="metadata5">
    <rdf:RDF>
      <cc:Work
         rdf:about="">
        <dc:format>image/svg+xml</dc:format>
        <dc:type
           rdf:resource="http://purl.org/dc/dcmitype/StillImage" />
        <dc:title />
      </cc:Work>
    </rdf:RDF>
  </metadata>
  <g
     inkscape:label="Calque 1"
     inkscape:groupmode="layer"
     id="layer1"
     transform="translate(-6.4816094,-32.232907)">
    <g
       aria-label="TOPS COVERS"
       id="text851"
       style="font-size:10.5833px;line-height:1.25;letter-spacing:0px;word-spacing:0px;stroke-width:0.264583">
      <path
         d="M 9.4273021,34.785137 H 7.8045256 v -1.41111 H 12.6023 v 1.41111 h -1.622777 v 8.46666 H 9.4273021 Z"
         style="font-size:14.1111px;font-family:'Bebas Neue';-inkscape-font-specification:'Bebas Neue';stroke:none;fill:#ffde59;fill-opacity:1"
         id="path10272" />
      <path
         d="m 15.537363,43.392908 q -1.142999,0 -1.749776,-0.649111 -0.606777,-0.64911 -0.606777,-1.834443 v -5.192885 q 0,-1.185332 0.606777,-1.834443 0.606777,-0.64911 1.749776,-0.64911 1.142999,0 1.749777,0.64911 0.606777,0.649111 0.606777,1.834443 v 5.192885 q 0,1.185333 -0.606777,1.834443 -0.606778,0.649111 -1.749777,0.649111 z m 0,-1.41111 q 0.804333,0 0.804333,-0.973666 v -5.39044 q 0,-0.973666 -0.804333,-0.973666 -0.804332,0 -0.804332,0.973666 v 5.39044 q 0,0.973666 0.804332,0.973666 z"
         style="font-size:14.1111px;font-family:'Bebas Neue';-inkscape-font-specification:'Bebas Neue';stroke:none;fill:#ffde59;fill-opacity:1"
         id="path10274" />
      <path
         d="m 18.938134,33.374027 h 2.285998 q 1.15711,0 1.735665,0.620888 0.578555,0.620888 0.578555,1.820332 v 0.973666 q 0,1.199443 -0.578555,1.820332 -0.578555,0.620888 -1.735665,0.620888 h -0.733777 v 4.021664 h -1.552221 z m 2.285998,4.444996 q 0.381,0 0.564444,-0.211666 0.197555,-0.211667 0.197555,-0.719666 v -1.171222 q 0,-0.507999 -0.197555,-0.719666 -0.183444,-0.211666 -0.564444,-0.211666 h -0.733777 v 3.033886 z"
         style="font-size:14.1111px;font-family:'Bebas Neue';-inkscape-font-specification:'Bebas Neue';stroke:none;fill:#ffde59;fill-opacity:1"
         id="path10276" />
      <path
         d="m 26.459342,43.392908 q -1.128888,0 -1.707443,-0.635 -0.578555,-0.64911 -0.578555,-1.848554 V 40.34491 h 1.467554 v 0.677333 q 0,0.959555 0.804333,0.959555 0.39511,0 0.592666,-0.225778 0.211666,-0.239889 0.211666,-0.761999 0,-0.620889 -0.282222,-1.086555 -0.282222,-0.479777 -1.044221,-1.142999 -0.959555,-0.846666 -1.340555,-1.523999 -0.380999,-0.691444 -0.380999,-1.552221 0,-1.171221 0.592666,-1.806221 0.592666,-0.64911 1.721554,-0.64911 1.114777,0 1.679221,0.64911 0.578555,0.635 0.578555,1.834443 v 0.409222 h -1.467554 v -0.507999 q 0,-0.508 -0.197556,-0.733778 -0.197555,-0.239888 -0.578555,-0.239888 -0.77611,0 -0.77611,0.945443 0,0.536222 0.282222,1.001888 0.296333,0.465667 1.058332,1.128888 0.973666,0.846666 1.340555,1.53811 0.366888,0.691444 0.366888,1.622777 0,1.213555 -0.606777,1.862665 -0.592666,0.649111 -1.735665,0.649111 z"
         style="font-size:14.1111px;font-family:'Bebas Neue';-inkscape-font-specification:'Bebas Neue';stroke:none;fill:#ffde59;fill-opacity:1"
         id="path10278" />
      <path
         d="m 34.135774,43.392908 q -1.114777,0 -1.707443,-0.635 -0.578555,-0.634999 -0.578555,-1.79211 v -5.305773 q 0,-1.15711 0.578555,-1.79211 0.592666,-0.634999 1.707443,-0.634999 1.114777,0 1.693332,0.634999 0.592666,0.635 0.592666,1.79211 v 1.044221 h -1.467554 v -1.142999 q 0,-0.917221 -0.776111,-0.917221 -0.77611,0 -0.77611,0.917221 v 5.51744 q 0,0.903111 0.77611,0.903111 0.776111,0 0.776111,-0.903111 V 39.5688 h 1.467554 v 1.396998 q 0,1.157111 -0.592666,1.79211 -0.578555,0.635 -1.693332,0.635 z"
         style="font-size:14.1111px;font-family:'Bebas Neue';-inkscape-font-specification:'Bebas Neue';stroke:none;fill:#ffde59;fill-opacity:1"
         id="path10280" />
      <path
         d="m 39.624969,43.392908 q -1.142999,0 -1.749776,-0.649111 -0.606778,-0.64911 -0.606778,-1.834443 v -5.192885 q 0,-1.185332 0.606778,-1.834443 0.606777,-0.64911 1.749776,-0.64911 1.142999,0 1.749777,0.64911 0.606777,0.649111 0.606777,1.834443 v 5.192885 q 0,1.185333 -0.606777,1.834443 -0.606778,0.649111 -1.749777,0.649111 z m 0,-1.41111 q 0.804333,0 0.804333,-0.973666 v -5.39044 q 0,-0.973666 -0.804333,-0.973666 -0.804333,0 -0.804333,0.973666 v 5.39044 q 0,0.973666 0.804333,0.973666 z"
         style="font-size:14.1111px;font-family:'Bebas Neue';-inkscape-font-specification:'Bebas Neue';stroke:none;fill:#ffde59;fill-opacity:1"
         id="path10282" />
      <path
         d="m 42.588282,33.374027 h 1.566332 l 1.015999,7.662327 h 0.02822 l 1.016,-7.662327 h 1.425221 l -1.495777,9.87777 h -2.060221 z"
         style="font-size:14.1111px;font-family:'Bebas Neue';-inkscape-font-specification:'Bebas Neue';stroke:none;fill:#ffde59;fill-opacity:1"
         id="path10284" />
      <path
         d="m 48.387946,33.374027 h 4.23333 v 1.41111 h -2.681109 v 2.610553 h 2.130776 v 1.41111 h -2.130776 v 3.033887 h 2.681109 v 1.41111 h -4.23333 z"
         style="font-size:14.1111px;font-family:'Bebas Neue';-inkscape-font-specification:'Bebas Neue';stroke:none;fill:#ffde59;fill-opacity:1"
         id="path10286" />
      <path
         d="m 53.51026,33.374027 h 2.300109 q 1.199444,0 1.749777,0.564444 0.550333,0.550333 0.550333,1.707443 v 0.606777 q 0,1.53811 -1.015999,1.947332 v 0.02822 q 0.564444,0.169333 0.790221,0.691444 0.239889,0.522111 0.239889,1.396999 v 1.735665 q 0,0.423333 0.02822,0.691444 0.02822,0.254 0.141111,0.508 H 56.71348 q -0.08467,-0.239889 -0.112889,-0.451555 -0.02822,-0.211667 -0.02822,-0.762 v -1.806221 q 0,-0.677333 -0.225778,-0.945443 -0.211666,-0.268111 -0.747888,-0.268111 h -0.536222 v 4.23333 H 53.51026 Z m 2.116665,4.23333 q 0.465666,0 0.691444,-0.239889 0.239889,-0.239889 0.239889,-0.804333 v -0.761999 q 0,-0.536222 -0.197556,-0.776111 -0.183444,-0.239888 -0.592666,-0.239888 h -0.705555 v 2.82222 z"
         style="font-size:14.1111px;font-family:'Bebas Neue';-inkscape-font-specification:'Bebas Neue';stroke:none;fill:#ffde59;fill-opacity:1"
         id="path10288" />
      <path
         d="m 61.214919,43.392908 q -1.128888,0 -1.707443,-0.635 -0.578555,-0.64911 -0.578555,-1.848554 V 40.34491 h 1.467554 v 0.677333 q 0,0.959555 0.804333,0.959555 0.395111,0 0.592666,-0.225778 0.211666,-0.239889 0.211666,-0.761999 0,-0.620889 -0.282222,-1.086555 -0.282222,-0.479777 -1.044221,-1.142999 -0.959555,-0.846666 -1.340554,-1.523999 -0.381,-0.691444 -0.381,-1.552221 0,-1.171221 0.592666,-1.806221 0.592666,-0.64911 1.721554,-0.64911 1.114777,0 1.679221,0.64911 0.578555,0.635 0.578555,1.834443 v 0.409222 h -1.467554 v -0.507999 q 0,-0.508 -0.197556,-0.733778 -0.197555,-0.239888 -0.578555,-0.239888 -0.77611,0 -0.77611,0.945443 0,0.536222 0.282222,1.001888 0.296333,0.465667 1.058332,1.128888 0.973666,0.846666 1.340555,1.53811 0.366888,0.691444 0.366888,1.622777 0,1.213555 -0.606777,1.862665 -0.592666,0.649111 -1.735665,0.649111 z"
         style="font-size:14.1111px;font-family:'Bebas Neue';-inkscape-font-specification:'Bebas Neue';stroke:none;fill:#ffde59;fill-opacity:1"
         id="path10290" />
    </g>
  </g>
</svg>
