<?xml version="1.0" encoding="UTF-8" standalone="no"?>
<svg
   xmlns:dc="http://purl.org/dc/elements/1.1/"
   xmlns:cc="http://creativecommons.org/ns#"
   xmlns:rdf="http://www.w3.org/1999/02/22-rdf-syntax-ns#"
   xmlns:svg="http://www.w3.org/2000/svg"
   xmlns="http://www.w3.org/2000/svg"
   xmlns:sodipodi="http://sodipodi.sourceforge.net/DTD/sodipodi-0.dtd"
   xmlns:inkscape="http://www.inkscape.org/namespaces/inkscape"
   height="512pt"
   viewBox="0 0 512 512"
   width="512pt"
   version="1.1"
   id="svg4557"
   sodipodi:docname="plus-white.svg"
   inkscape:version="0.92.4 (5da689c313, 2019-01-14)">
  <metadata
     id="metadata4563">
    <rdf:RDF>
      <cc:Work
         rdf:about="">
        <dc:format>image/svg+xml</dc:format>
        <dc:type
           rdf:resource="http://purl.org/dc/dcmitype/StillImage" />
      </cc:Work>
    </rdf:RDF>
  </metadata>
  <defs
     id="defs4561" />
  <sodipodi:namedview
     pagecolor="#ffffff"
     bordercolor="#666666"
     borderopacity="1"
     objecttolerance="10"
     gridtolerance="10"
     guidetolerance="10"
     inkscape:pageopacity="0"
     inkscape:pageshadow="2"
     inkscape:window-width="1366"
     inkscape:window-height="705"
     id="namedview4559"
     showgrid="false"
     inkscape:zoom="0.34570313"
     inkscape:cx="341.33333"
     inkscape:cy="341.33333"
     inkscape:window-x="-8"
     inkscape:window-y="-8"
     inkscape:window-maximized="1"
     inkscape:current-layer="svg4557" />
  <path
     d="M 256,512 C 114.83594,512 0,397.16406 0,256 0,114.83594 114.83594,0 256,0 397.16406,0 512,114.83594 512,256 512,397.16406 397.16406,512 256,512 Z M 256,32 C 132.48047,32 32,132.48047 32,256 32,379.51953 132.48047,480 256,480 379.51953,480 480,379.51953 480,256 480,132.48047 379.51953,32 256,32 Z m 0,0"
     id="path4551"
     style="fill:#ffffff"
     inkscape:connector-curvature="0" />
  <path
     d="M 368,272 H 144 c -8.83203,0 -16,-7.16797 -16,-16 0,-8.83203 7.16797,-16 16,-16 h 224 c 8.83203,0 16,7.16797 16,16 0,8.83203 -7.16797,16 -16,16 z m 0,0"
     id="path4553"
     style="fill:#ffffff"
     inkscape:connector-curvature="0" />
  <path
     d="m 256,384 c -8.83203,0 -16,-7.16797 -16,-16 V 144 c 0,-8.83203 7.16797,-16 16,-16 8.83203,0 16,7.16797 16,16 v 224 c 0,8.83203 -7.16797,16 -16,16 z m 0,0"
     id="path4555"
     style="fill:#ffffff;stroke:#ffffff"
     inkscape:connector-curvature="0" />
</svg>
