<?xml version="1.0" encoding="UTF-8" standalone="no"?>
<!-- Created with Inkscape (http://www.inkscape.org/) -->

<svg
   width="168.94231mm"
   height="38.576mm"
   viewBox="0 0 168.94231 38.576"
   version="1.1"
   id="svg8"
   sodipodi:docname="starzmag.svg"
   inkscape:version="1.1 (c68e22c387, 2021-05-23)"
   xmlns:inkscape="http://www.inkscape.org/namespaces/inkscape"
   xmlns:sodipodi="http://sodipodi.sourceforge.net/DTD/sodipodi-0.dtd"
   xmlns="http://www.w3.org/2000/svg"
   xmlns:svg="http://www.w3.org/2000/svg"
   xmlns:rdf="http://www.w3.org/1999/02/22-rdf-syntax-ns#"
   xmlns:cc="http://creativecommons.org/ns#"
   xmlns:dc="http://purl.org/dc/elements/1.1/">
  <defs
     id="defs2" />
  <sodipodi:namedview
     id="base"
     pagecolor="#ffffff"
     bordercolor="#666666"
     borderopacity="1.0"
     inkscape:pageopacity="0.0"
     inkscape:pageshadow="2"
     inkscape:zoom="0.7"
     inkscape:cx="236.42857"
     inkscape:cy="89.285714"
     inkscape:document-units="mm"
     inkscape:current-layer="layer1"
     showgrid="false"
     inkscape:window-width="1366"
     inkscape:window-height="705"
     inkscape:window-x="-8"
     inkscape:window-y="-8"
     inkscape:window-maximized="1"
     fit-margin-top="1"
     fit-margin-left="1"
     fit-margin-right="1"
     fit-margin-bottom="1"
     inkscape:pagecheckerboard="1" />
  <metadata
     id="metadata5">
    <rdf:RDF>
      <cc:Work
         rdf:about="">
        <dc:format>image/svg+xml</dc:format>
        <dc:type
           rdf:resource="http://purl.org/dc/dcmitype/StillImage" />
        <dc:title />
      </cc:Work>
    </rdf:RDF>
  </metadata>
  <g
     inkscape:label="Calque 1"
     inkscape:groupmode="layer"
     id="layer1"
     transform="translate(330.9893,38.064321)">
    <g
       aria-label="STARZ MAG"
       id="text827"
       style="font-size:10.5833px;line-height:1.25;letter-spacing:0px;word-spacing:0px;stroke-width:0.264583">
      <path
         d="m -321.7597,-0.48832163 q -4.064,0 -6.1468,-2.28599997 -2.0828,-2.3368 -2.0828,-6.6547999 v -2.0319995 h 5.2832 v 2.4383995 q 0,3.4544 2.8956,3.4544 1.4224,0 2.1336,-0.8128 0.762,-0.8636 0.762,-2.7432 0,-2.2351995 -1.016,-3.9115995 -1.016,-1.7272 -3.7592,-4.1148 -3.4544,-3.048 -4.826,-5.4864 -1.3716,-2.4892 -1.3716,-5.588 0,-4.2164 2.1336,-6.5024 2.1336,-2.3368 6.1976,-2.3368 4.0132,0 6.0452,2.3368 2.0828,2.286 2.0828,6.604 v 1.4732 h -5.2832 v -1.8288 q 0,-1.8288 -0.7112,-2.6416 -0.7112,-0.8636 -2.0828,-0.8636 -2.794,0 -2.794,3.4036 0,1.9304 1.016,3.6068 1.0668,1.6764 3.81,4.064 3.5052,3.048 4.826,5.5372 1.3208,2.4892 1.3208,5.8419995 0,4.3687999 -2.1844,6.7055999 -2.1336,2.33679997 -6.2484,2.33679997 z"
         style="font-size:50.8px;font-family:'Bebas Neue';-inkscape-font-specification:'Bebas Neue';fill:#ffffff;stroke:none"
         id="path11380" />
      <path
         d="m -305.75772,-31.476321 h -5.842 v -5.08 h 17.272 v 5.08 h -5.842 v 30.47999938 h -5.588 z"
         style="font-size:50.8px;font-family:'Bebas Neue';-inkscape-font-specification:'Bebas Neue';fill:#ffffff;stroke:none"
         id="path11382" />
      <path
         d="m -289.65427,-36.556321 h 7.5692 l 5.7912,35.55999938 h -5.588 l -1.016,-7.06119988 v 0.1016 h -6.35 l -1.016,6.95959988 h -5.1816 z m 6.096,23.7744 -2.4892,-17.5768 h -0.1016 l -2.4384,17.5768 z"
         style="font-size:50.8px;font-family:'Bebas Neue';-inkscape-font-specification:'Bebas Neue';fill:#ffffff;stroke:none"
         id="path11384" />
      <path
         d="m -273.60152,-36.556321 h 8.2804 q 4.318,0 6.2992,2.032 1.9812,1.9812 1.9812,6.1468 v 2.1844 q 0,5.5372 -3.6576,7.0104 v 0.1016 q 2.032,0.6096 2.8448,2.4892 0.8636,1.8796 0.8636,5.0292 v 6.2483994 q 0,1.524 0.1016,2.4892 0.1016,0.9144 0.508,1.82879998 h -5.6896 q -0.3048,-0.86359998 -0.4064,-1.62559998 -0.1016,-0.762 -0.1016,-2.7432 v -6.5023994 q 0,-2.4384 -0.8128,-3.4036 -0.762,-0.9652 -2.6924,-0.9652 h -1.9304 v 15.23999938 h -5.588 z m 7.62,15.24 q 1.6764,0 2.4892,-0.8636 0.8636,-0.8636 0.8636,-2.8956 v -2.7432 q 0,-1.9304 -0.7112,-2.794 -0.6604,-0.8636 -2.1336,-0.8636 h -2.54 v 10.16 z"
         style="font-size:50.8px;font-family:'Bebas Neue';-inkscape-font-specification:'Bebas Neue';fill:#ffffff;stroke:none"
         id="path11386" />
      <path
         d="m -254.24673,-5.9747215 10.3632,-25.5015995 h -9.8552 v -5.08 h 15.8496 v 4.9784 l -10.3632,25.5015995 h 10.3632 v 5.07999988 h -16.3576 z"
         style="font-size:50.8px;font-family:'Bebas Neue';-inkscape-font-specification:'Bebas Neue';fill:#ffffff;stroke:none"
         id="path11388" />
      <path
         d="m -226.61156,-36.556321 h 7.9756 l 3.556,25.4508 h 0.1016 l 3.556,-25.4508 h 7.9756 v 35.55999938 h -5.2832 V -27.920321 h -0.1016 l -4.064,26.92399938 h -4.6736 l -4.064,-26.92399938 h -0.1016 v 26.92399938 h -4.8768 z"
         style="font-size:50.8px;font-family:'Bebas Neue';-inkscape-font-specification:'Bebas Neue';fill:#ffffff;stroke:none"
         id="path11390" />
      <path
         d="m -194.96324,-36.556321 h 7.5692 l 5.7912,35.55999938 h -5.588 l -1.016,-7.06119988 v 0.1016 h -6.35 l -1.016,6.95959988 h -5.1816 z m 6.096,23.7744 -2.4892,-17.5768 h -0.1016 l -2.4384,17.5768 z"
         style="font-size:50.8px;font-family:'Bebas Neue';-inkscape-font-specification:'Bebas Neue';fill:#ffffff;stroke:none"
         id="path11392" />
      <path
         d="m -171.08734,-0.48832163 q -4.064,0 -6.1976,-2.28599997 -2.1336,-2.3368 -2.1336,-6.6547999 V -28.123521 q 0,-4.318 2.1336,-6.604 2.1336,-2.3368 6.1976,-2.3368 4.064,0 6.1976,2.3368 2.1336,2.286 2.1336,6.604 v 3.048 h -5.2832 v -3.4036 q 0,-3.5052 -2.8956,-3.5052 -2.8956,0 -2.8956,3.5052 v 19.4563995 q 0,3.4544 2.8956,3.4544 2.8956,0 2.8956,-3.4544 v -6.9595995 h -2.794 v -5.08 h 8.0772 v 11.6331995 q 0,4.3179999 -2.1336,6.6547999 -2.1336,2.28599997 -6.1976,2.28599997 z"
         style="font-size:50.8px;font-family:'Bebas Neue';-inkscape-font-specification:'Bebas Neue';fill:#ffffff;stroke:none"
         id="path11394" />
    </g>
  </g>
</svg>
